<svg width="1406" height="1122" viewBox="0 0 1406 1122" fill="none" xmlns="http://www.w3.org/2000/svg">
<g filter="url(#filter0_f_4398_73530)">
<ellipse cx="702.661" cy="-108.161" rx="173.65" ry="173.651" transform="rotate(-90 702.661 -108.161)" fill="#3C459A" fill-opacity="0.5"/>
</g>
<mask id="mask0_4398_73530" style="mask-type:alpha" maskUnits="userSpaceOnUse" x="0" y="-528" width="1407" height="840">
<rect y="-528" width="1406.79" height="839.677" fill="url(#paint0_radial_4398_73530)"/>
</mask>
<g mask="url(#mask0_4398_73530)">
<rect x="180.978" y="-51.0107" width="115.767" height="115.767" stroke="white" stroke-width="1.4654"/>
<rect x="296.745" y="-51.0107" width="115.767" height="115.767" stroke="white" stroke-width="1.4654"/>
<rect x="412.512" y="-51.0107" width="115.767" height="115.767" stroke="white" stroke-width="1.4654"/>
<rect x="528.279" y="-51.0107" width="115.767" height="115.767" fill="white" fill-opacity="0.25" stroke="white" stroke-width="1.4654"/>
<rect x="644.046" y="-51.0107" width="115.767" height="115.767" stroke="white" stroke-width="1.4654"/>
<rect x="759.813" y="-51.0107" width="115.767" height="115.767" stroke="white" stroke-width="1.4654"/>
<rect x="875.58" y="-51.0107" width="115.767" height="115.767" stroke="white" stroke-width="1.4654"/>
<rect x="991.347" y="-51.0107" width="115.767" height="115.767" stroke="white" stroke-width="1.4654"/>
<rect x="1107.11" y="-51.0107" width="115.767" height="115.767" stroke="white" stroke-width="1.4654"/>
<rect x="180.978" y="64.7563" width="115.767" height="115.767" stroke="white" stroke-width="1.4654"/>
<rect x="296.745" y="64.7563" width="115.767" height="115.767" stroke="white" stroke-width="1.4654"/>
<rect x="412.512" y="64.7563" width="115.767" height="115.767" stroke="white" stroke-width="1.4654"/>
<rect x="528.279" y="64.7563" width="115.767" height="115.767" stroke="white" stroke-width="1.4654"/>
<rect x="644.046" y="64.7563" width="115.767" height="115.767" stroke="white" stroke-width="1.4654"/>
<rect x="759.813" y="64.7563" width="115.767" height="115.767" stroke="white" stroke-width="1.4654"/>
<rect x="875.58" y="64.7563" width="115.767" height="115.767" stroke="white" stroke-width="1.4654"/>
<rect x="991.347" y="64.7563" width="115.767" height="115.767" stroke="white" stroke-width="1.4654"/>
<rect x="1107.11" y="64.7563" width="115.767" height="115.767" stroke="white" stroke-width="1.4654"/>
<rect x="180.978" y="180.523" width="115.767" height="115.767" stroke="white" stroke-width="1.4654"/>
<rect x="296.745" y="180.523" width="115.767" height="115.767" stroke="white" stroke-width="1.4654"/>
<rect x="412.512" y="180.523" width="115.767" height="115.767" stroke="white" stroke-width="1.4654"/>
<rect x="528.279" y="180.523" width="115.767" height="115.767" stroke="white" stroke-width="1.4654"/>
<rect x="644.046" y="180.523" width="115.767" height="115.767" stroke="white" stroke-width="1.4654"/>
<rect x="759.813" y="180.523" width="115.767" height="115.767" stroke="white" stroke-width="1.4654"/>
<rect x="875.58" y="180.523" width="115.767" height="115.767" stroke="white" stroke-width="1.4654"/>
<rect x="991.347" y="180.523" width="115.767" height="115.767" stroke="white" stroke-width="1.4654"/>
<rect x="1107.11" y="180.523" width="115.767" height="115.767" stroke="white" stroke-width="1.4654"/>
</g>
<g filter="url(#filter1_f_4398_73530)">
<ellipse cx="702.661" cy="654.516" rx="173.65" ry="173.651" transform="rotate(-90 702.661 654.516)" fill="#3C459A" fill-opacity="0.5"/>
</g>
<mask id="mask1_4398_73530" style="mask-type:alpha" maskUnits="userSpaceOnUse" x="0" y="234" width="1407" height="841">
<rect y="234.677" width="1406.79" height="839.677" fill="url(#paint1_radial_4398_73530)"/>
</mask>
<g mask="url(#mask1_4398_73530)">
<g opacity="0.5">
<rect x="180.978" y="248.598" width="115.767" height="115.767" stroke="white" stroke-width="1.4654"/>
<rect x="296.745" y="248.598" width="115.767" height="115.767" stroke="white" stroke-width="1.4654"/>
<rect x="412.512" y="248.598" width="115.767" height="115.767" stroke="white" stroke-width="1.4654"/>
<rect x="528.279" y="248.598" width="115.767" height="115.767" stroke="white" stroke-width="1.4654"/>
<rect x="644.046" y="248.598" width="115.767" height="115.767" stroke="white" stroke-width="1.4654"/>
<rect x="759.812" y="248.598" width="115.767" height="115.767" stroke="white" stroke-width="1.4654"/>
<rect x="875.579" y="248.598" width="115.767" height="115.767" fill="white" fill-opacity="0.25" stroke="white" stroke-width="1.4654"/>
<rect x="991.346" y="248.598" width="115.767" height="115.767" stroke="white" stroke-width="1.4654"/>
<rect x="1107.11" y="248.598" width="115.767" height="115.767" stroke="white" stroke-width="1.4654"/>
<rect x="180.978" y="364.365" width="115.767" height="115.767" stroke="white" stroke-width="1.4654"/>
<rect x="296.745" y="364.366" width="115.767" height="115.767" stroke="white" stroke-width="1.4654"/>
<rect x="412.512" y="364.366" width="115.767" height="115.767" stroke="white" stroke-width="1.4654"/>
<rect x="528.279" y="364.366" width="115.767" height="115.767" stroke="white" stroke-width="1.4654"/>
<rect x="644.046" y="364.366" width="115.767" height="115.767" stroke="white" stroke-width="1.4654"/>
<rect x="759.813" y="364.365" width="115.767" height="115.767" stroke="white" stroke-width="1.4654"/>
<rect x="875.58" y="364.366" width="115.767" height="115.767" stroke="white" stroke-width="1.4654"/>
<rect x="991.347" y="364.366" width="115.767" height="115.767" stroke="white" stroke-width="1.4654"/>
<rect x="1107.11" y="364.365" width="115.767" height="115.767" stroke="white" stroke-width="1.4654"/>
<rect x="180.978" y="480.132" width="115.767" height="115.767" stroke="white" stroke-width="1.4654"/>
<rect x="296.745" y="480.133" width="115.767" height="115.767" stroke="white" stroke-width="1.4654"/>
<rect x="412.512" y="480.133" width="115.767" height="115.767" stroke="white" stroke-width="1.4654"/>
<rect x="528.279" y="480.133" width="115.767" height="115.767" stroke="white" stroke-width="1.4654"/>
<rect x="644.046" y="480.133" width="115.767" height="115.767" fill="white" fill-opacity="0.25" stroke="white" stroke-width="1.4654"/>
<rect x="759.813" y="480.132" width="115.767" height="115.767" stroke="white" stroke-width="1.4654"/>
<rect x="875.58" y="480.133" width="115.767" height="115.767" fill="white" fill-opacity="0.25" stroke="white" stroke-width="1.4654"/>
<rect x="991.347" y="480.133" width="115.767" height="115.767" stroke="white" stroke-width="1.4654"/>
<rect x="1107.11" y="480.132" width="115.767" height="115.767" stroke="white" stroke-width="1.4654"/>
<rect x="180.978" y="595.899" width="115.767" height="115.767" stroke="white" stroke-width="1.4654"/>
<rect x="296.745" y="595.9" width="115.767" height="115.767" stroke="white" stroke-width="1.4654"/>
<rect x="412.512" y="595.9" width="115.767" height="115.767" stroke="white" stroke-width="1.4654"/>
<rect x="528.279" y="595.9" width="115.767" height="115.767" stroke="white" stroke-width="1.4654"/>
<rect x="644.046" y="595.9" width="115.767" height="115.767" stroke="white" stroke-width="1.4654"/>
<rect x="759.813" y="595.899" width="115.767" height="115.767" stroke="white" stroke-width="1.4654"/>
<rect x="875.58" y="595.9" width="115.767" height="115.767" stroke="white" stroke-width="1.4654"/>
<rect x="991.347" y="595.9" width="115.767" height="115.767" stroke="white" stroke-width="1.4654"/>
<rect x="1107.11" y="595.899" width="115.767" height="115.767" stroke="white" stroke-width="1.4654"/>
<rect x="180.978" y="711.666" width="115.767" height="115.767" stroke="white" stroke-width="1.4654"/>
<rect x="296.745" y="711.666" width="115.767" height="115.767" stroke="white" stroke-width="1.4654"/>
<rect x="412.512" y="711.666" width="115.767" height="115.767" stroke="white" stroke-width="1.4654"/>
<rect x="528.279" y="711.666" width="115.767" height="115.767" fill="white" fill-opacity="0.25" stroke="white" stroke-width="1.4654"/>
<rect x="644.046" y="711.666" width="115.767" height="115.767" stroke="white" stroke-width="1.4654"/>
<rect x="759.813" y="711.666" width="115.767" height="115.767" stroke="white" stroke-width="1.4654"/>
<rect x="875.58" y="711.666" width="115.767" height="115.767" stroke="white" stroke-width="1.4654"/>
<rect x="991.347" y="711.666" width="115.767" height="115.767" stroke="white" stroke-width="1.4654"/>
<rect x="1107.11" y="711.666" width="115.767" height="115.767" stroke="white" stroke-width="1.4654"/>
<rect x="180.978" y="827.434" width="115.767" height="115.767" stroke="white" stroke-width="1.4654"/>
<rect x="296.745" y="827.434" width="115.767" height="115.767" stroke="white" stroke-width="1.4654"/>
<rect x="412.512" y="827.434" width="115.767" height="115.767" stroke="white" stroke-width="1.4654"/>
<rect x="528.279" y="827.434" width="115.767" height="115.767" stroke="white" stroke-width="1.4654"/>
<rect x="644.046" y="827.434" width="115.767" height="115.767" stroke="white" stroke-width="1.4654"/>
<rect x="759.813" y="827.434" width="115.767" height="115.767" stroke="white" stroke-width="1.4654"/>
<rect x="875.58" y="827.434" width="115.767" height="115.767" stroke="white" stroke-width="1.4654"/>
<rect x="991.347" y="827.434" width="115.767" height="115.767" stroke="white" stroke-width="1.4654"/>
<rect x="1107.11" y="827.434" width="115.767" height="115.767" stroke="white" stroke-width="1.4654"/>
<rect x="180.978" y="943.2" width="115.767" height="115.767" stroke="white" stroke-width="1.4654"/>
<rect x="296.745" y="943.2" width="115.767" height="115.767" stroke="white" stroke-width="1.4654"/>
<rect x="412.512" y="943.2" width="115.767" height="115.767" stroke="white" stroke-width="1.4654"/>
<rect x="528.279" y="943.2" width="115.767" height="115.767" stroke="white" stroke-width="1.4654"/>
<rect x="644.046" y="943.2" width="115.767" height="115.767" stroke="white" stroke-width="1.4654"/>
<rect x="759.813" y="943.2" width="115.767" height="115.767" stroke="white" stroke-width="1.4654"/>
<rect x="875.58" y="943.2" width="115.767" height="115.767" stroke="white" stroke-width="1.4654"/>
<rect x="991.347" y="943.2" width="115.767" height="115.767" stroke="white" stroke-width="1.4654"/>
<rect x="1107.11" y="943.2" width="115.767" height="115.767" stroke="white" stroke-width="1.4654"/>
</g>
</g>
<defs>
<filter id="filter0_f_4398_73530" x="235.93" y="-574.893" width="933.463" height="933.463" filterUnits="userSpaceOnUse" color-interpolation-filters="sRGB">
<feFlood flood-opacity="0" result="BackgroundImageFix"/>
<feBlend mode="normal" in="SourceGraphic" in2="BackgroundImageFix" result="shape"/>
<feGaussianBlur stdDeviation="146.541" result="effect1_foregroundBlur_4398_73530"/>
</filter>
<filter id="filter1_f_4398_73530" x="235.93" y="187.784" width="933.463" height="933.463" filterUnits="userSpaceOnUse" color-interpolation-filters="sRGB">
<feFlood flood-opacity="0" result="BackgroundImageFix"/>
<feBlend mode="normal" in="SourceGraphic" in2="BackgroundImageFix" result="shape"/>
<feGaussianBlur stdDeviation="146.541" result="effect1_foregroundBlur_4398_73530"/>
</filter>
<radialGradient id="paint0_radial_4398_73530" cx="0" cy="0" r="1" gradientUnits="userSpaceOnUse" gradientTransform="translate(703.395 -108.161) rotate(90) scale(517.566 867.127)">
<stop stop-color="#D9D9D9" stop-opacity="0.2"/>
<stop offset="0.802083" stop-color="#D9D9D9" stop-opacity="0"/>
</radialGradient>
<radialGradient id="paint1_radial_4398_73530" cx="0" cy="0" r="1" gradientUnits="userSpaceOnUse" gradientTransform="translate(703.395 654.516) rotate(90) scale(517.566 867.127)">
<stop stop-color="#D9D9D9" stop-opacity="0.2"/>
<stop offset="0.802083" stop-color="#D9D9D9" stop-opacity="0"/>
</radialGradient>
</defs>
</svg>
