<svg width="57" height="56" viewBox="0 0 57 56" fill="none" xmlns="http://www.w3.org/2000/svg">
<path d="M10.4164 0.560547H46.5831C52.0664 0.560547 56.4998 4.99388 56.4998 10.4772V45.2439C56.4998 50.7272 52.0664 55.1605 46.5831 55.1605H10.4164C4.93309 55.1605 0.499756 50.7272 0.499756 45.2439V10.4772C0.499756 4.99388 4.93309 0.560547 10.4164 0.560547Z" fill="#00005B"/>
<path d="M22.9931 33.2274H14.3131L12.5397 38.7341C12.4931 38.9441 12.3064 39.0841 12.0964 39.0608H7.70972C7.45305 39.0608 7.38305 38.9208 7.45305 38.6408L14.9664 17.1041C15.0364 16.8708 15.1064 16.6608 15.1997 16.3808C15.2931 15.8908 15.3397 15.3774 15.3397 14.8641C15.3164 14.7474 15.4097 14.6308 15.5264 14.6074H15.5964H21.5697C21.7331 14.6074 21.8497 14.6774 21.8731 14.7941L30.3897 38.5941C30.4597 38.8508 30.3897 38.9674 30.1564 38.9674H25.2797C25.1164 38.9908 24.9531 38.8741 24.9064 38.7108L22.9931 33.1108V33.2274ZM15.6664 28.5841H21.5931C21.4531 28.0941 21.2664 27.5108 21.0564 26.9041C20.8464 26.2741 20.6364 25.5974 20.4264 24.8974C20.1931 24.1741 19.9831 23.4741 19.7497 22.7508C19.5164 22.0274 19.3064 21.3508 19.1197 20.6741C18.9331 20.0208 18.7697 19.4141 18.6064 18.8541H18.5597C18.3497 19.8574 18.0931 20.8608 17.7664 21.8641C17.4164 22.9841 17.0664 24.1508 16.6931 25.3174C16.3897 26.5074 16.0164 27.6041 15.6664 28.5841Z" fill="#9999FF"/>
<path d="M44.1331 31.1273H36.7365C36.8298 31.8506 37.0631 32.5739 37.4598 33.2039C37.8798 33.8339 38.4631 34.3239 39.1631 34.6039C40.0965 35.0006 41.1231 35.2106 42.1498 35.1873C42.9665 35.1639 43.7831 35.0939 44.5765 34.9306C45.2998 34.8373 45.9998 34.6506 46.6531 34.3939C46.7698 34.3006 46.8398 34.3473 46.8398 34.5806V38.1506C46.8398 38.2439 46.8165 38.3373 46.7931 38.4306C46.7465 38.5006 46.6998 38.5473 46.6298 38.5939C45.8831 38.9206 45.1131 39.1539 44.2965 39.2939C43.1998 39.5039 42.1031 39.5973 40.9831 39.5739C39.2098 39.5739 37.7165 39.2939 36.5031 38.7573C35.3598 38.2673 34.3565 37.4973 33.5631 36.5406C32.8165 35.6306 32.2798 34.6039 31.9531 33.4839C31.6265 32.3873 31.4631 31.2439 31.4631 30.0773C31.4631 28.8173 31.6498 27.5806 32.0465 26.3673C32.4198 25.2006 33.0031 24.1273 33.7965 23.1706C34.5665 22.2373 35.5231 21.4906 36.6198 20.9539C37.7165 20.4173 39.0231 20.2306 40.5165 20.2306C41.7531 20.2073 42.9898 20.4406 44.1331 20.9539C45.0898 21.3739 45.9298 22.0039 46.5831 22.8206C47.1898 23.6139 47.6798 24.5006 47.9831 25.4806C48.2865 26.4139 48.4265 27.3706 48.4265 28.3273C48.4265 28.8873 48.4031 29.3773 48.3798 29.8206C48.3331 30.2639 48.3098 30.5906 48.2865 30.8006C48.2631 30.9639 48.1231 31.1039 47.9598 31.1039C47.8198 31.1039 47.5631 31.1273 47.1898 31.1506C46.8165 31.1973 46.3731 31.2206 45.8365 31.2206C45.2998 31.2206 44.7398 31.1273 44.1331 31.1273ZM36.7365 27.7206H41.6598C42.2665 27.7206 42.7098 27.7206 42.9898 27.6973C43.1765 27.6739 43.3631 27.6273 43.5265 27.5106V27.2773C43.5265 26.9739 43.4798 26.6939 43.3865 26.4139C42.9665 25.1073 41.7298 24.2206 40.3531 24.2673C39.0698 24.1973 37.8565 24.8739 37.2498 26.0406C36.9698 26.5773 36.8065 27.1373 36.7365 27.7206Z" fill="#9999FF"/>
</svg>
