<svg width="15" height="15" viewBox="0 0 15 15" fill="none" xmlns="http://www.w3.org/2000/svg">
<path d="M14.2499 1.30664V11.0566C14.2499 11.2556 14.1709 11.4463 14.0303 11.587C13.8896 11.7276 13.6988 11.8066 13.4999 11.8066C13.301 11.8066 13.1102 11.7276 12.9696 11.587C12.8289 11.4463 12.7499 11.2556 12.7499 11.0566V3.11695L2.03055 13.8373C1.88982 13.978 1.69895 14.0571 1.49993 14.0571C1.30091 14.0571 1.11003 13.978 0.969304 13.8373C0.828573 13.6965 0.749512 13.5057 0.749512 13.3066C0.749512 13.1076 0.828573 12.9167 0.969304 12.776L11.6896 2.05664H3.74993C3.55102 2.05664 3.36025 1.97762 3.2196 1.83697C3.07895 1.69632 2.99993 1.50555 2.99993 1.30664C2.99993 1.10773 3.07895 0.916963 3.2196 0.776311C3.36025 0.635658 3.55102 0.556641 3.74993 0.556641H13.4999C13.6988 0.556641 13.8896 0.635658 14.0303 0.776311C14.1709 0.916963 14.2499 1.10773 14.2499 1.30664Z" fill="#EFEDFD"/>
</svg>
