<svg width="56" height="56" viewBox="0 0 56 56" fill="none" xmlns="http://www.w3.org/2000/svg">
<path d="M42.4562 45.1768L36.8504 27.9214L51.5251 17.2599H33.3854L27.7789 0.00487805L27.7772 0.000195122H45.9196L51.5274 17.2579L51.5278 17.2576L51.5325 17.255C54.7891 27.2667 51.4349 38.654 42.4562 45.1766V45.1768ZM13.1001 45.1768L13.0956 45.1801L27.7743 55.8445L42.4562 45.1772L27.7789 34.5126L13.1003 45.1768H13.1001ZM4.02793 17.2554C0.599636 27.8092 4.57915 38.992 13.0974 45.1789L13.0988 45.1735L18.7056 27.919L4.03398 17.2595H22.1694L27.776 0.00468293L27.7772 0H9.63378L4.02773 17.2554H4.02793Z" fill="#EB5424"/>
</svg>
