<svg width="57" height="56" viewBox="0 0 57 56" fill="none" xmlns="http://www.w3.org/2000/svg">
<path d="M16.2813 23.3628C16.2813 24.052 16.3558 24.6107 16.4862 25.0205C16.6352 25.4302 16.8214 25.8772 17.0822 26.3615C17.1753 26.5105 17.2126 26.6595 17.2126 26.7898C17.2126 26.9761 17.1008 27.1623 16.8587 27.3486L15.6853 28.1308C15.5177 28.2426 15.3501 28.2985 15.2011 28.2985C15.0148 28.2985 14.8286 28.2053 14.6423 28.0377C14.3816 27.7583 14.1581 27.4603 13.9718 27.1623C13.7856 26.8457 13.5993 26.4918 13.3944 26.0635C11.9417 27.777 10.1164 28.6337 7.91869 28.6337C6.35418 28.6337 5.10631 28.1867 4.19368 27.2927C3.28106 26.3987 2.81543 25.2067 2.81543 23.7167C2.81543 22.1336 3.37418 20.8484 4.51031 19.8799C5.64643 18.9114 7.15506 18.4272 9.07344 18.4272C9.70669 18.4272 10.3586 18.4831 11.0477 18.5762C11.7368 18.6693 12.4446 18.8183 13.1896 18.9859V17.6263C13.1896 16.2108 12.8916 15.2237 12.3142 14.6463C11.7182 14.0689 10.7124 13.7896 9.27831 13.7896C8.62644 13.7896 7.95594 13.8641 7.26681 14.0317C6.57769 14.1993 5.90718 14.4042 5.25531 14.6649C4.95731 14.7953 4.73381 14.8698 4.60343 14.9071C4.47306 14.9443 4.37993 14.9629 4.30543 14.9629C4.04468 14.9629 3.91431 14.7767 3.91431 14.3856V13.4729C3.91431 13.1749 3.95156 12.9514 4.04468 12.8211C4.13781 12.6907 4.30543 12.5603 4.56618 12.4299C5.21806 12.0947 6.00031 11.8153 6.91294 11.5918C7.82556 11.3497 8.79406 11.2379 9.81844 11.2379C12.0348 11.2379 13.6552 11.7408 14.6982 12.7466C15.7226 13.7523 16.2441 15.2796 16.2441 17.3283V23.3628H16.2813ZM8.71956 26.1938C9.33419 26.1938 9.96744 26.0821 10.6379 25.8586C11.3084 25.6351 11.9044 25.2253 12.4073 24.6666C12.7053 24.3127 12.9288 23.9216 13.0406 23.4746C13.1523 23.0276 13.2268 22.4875 13.2268 21.8542V21.0719C12.6867 20.9416 12.1093 20.8298 11.5133 20.7553C10.9173 20.6808 10.3399 20.6436 9.76257 20.6436C8.51469 20.6436 7.60206 20.8857 6.98744 21.3886C6.37281 21.8915 6.07481 22.5992 6.07481 23.5305C6.07481 24.4058 6.29831 25.0577 6.76394 25.5047C7.21094 25.9703 7.86281 26.1938 8.71956 26.1938ZM23.6755 28.2053C23.3402 28.2053 23.1167 28.1495 22.9677 28.0191C22.8187 27.9073 22.6883 27.6466 22.5766 27.2927L18.1997 12.8956C18.088 12.5231 18.0321 12.2809 18.0321 12.1506C18.0321 11.8526 18.1811 11.6849 18.4791 11.6849H20.3043C20.6582 11.6849 20.9003 11.7408 21.0307 11.8712C21.1797 11.9829 21.2915 12.2437 21.4032 12.5976L24.5322 24.9273L27.4377 12.5976C27.5308 12.2251 27.6426 11.9829 27.7916 11.8712C27.9406 11.7594 28.2013 11.6849 28.5366 11.6849H30.0266C30.3805 11.6849 30.6226 11.7408 30.7716 11.8712C30.9206 11.9829 31.051 12.2437 31.1255 12.5976L34.0682 25.0763L37.2904 12.5976C37.4021 12.2251 37.5325 11.9829 37.6629 11.8712C37.8119 11.7594 38.054 11.6849 38.3892 11.6849H40.1214C40.4194 11.6849 40.587 11.8339 40.587 12.1506C40.587 12.2437 40.5684 12.3368 40.5497 12.4486C40.5311 12.5603 40.4939 12.7093 40.4194 12.9142L35.9307 27.3113C35.819 27.6838 35.6886 27.926 35.5396 28.0377C35.3906 28.1495 35.1485 28.224 34.8318 28.224H33.2301C32.8762 28.224 32.6341 28.1681 32.4851 28.0377C32.3361 27.9073 32.2057 27.6652 32.1312 27.2927L29.2443 15.2796L26.3761 27.2741C26.283 27.6466 26.1712 27.8887 26.0222 28.0191C25.8732 28.1495 25.6125 28.2053 25.2772 28.2053H23.6755ZM47.6086 28.7082C46.6401 28.7082 45.6716 28.5965 44.7404 28.373C43.8091 28.1495 43.0827 27.9073 42.5985 27.628C42.3005 27.4603 42.0956 27.2741 42.0211 27.1065C41.9466 26.9388 41.9094 26.7526 41.9094 26.585V25.6351C41.9094 25.244 42.0584 25.0577 42.3377 25.0577C42.4495 25.0577 42.5612 25.0763 42.673 25.1136C42.7847 25.1508 42.9524 25.2253 43.1386 25.2998C43.7719 25.5792 44.461 25.8027 45.1874 25.9517C45.9324 26.1007 46.6587 26.1752 47.4037 26.1752C48.5771 26.1752 49.4897 25.9703 50.123 25.5606C50.7562 25.1508 51.0915 24.5548 51.0915 23.7912C51.0915 23.2697 50.9239 22.8413 50.5886 22.4875C50.2534 22.1336 49.6201 21.817 48.7075 21.519L46.0069 20.6808C44.6472 20.2524 43.6415 19.6192 43.0269 18.7811C42.4122 17.9616 42.0956 17.0489 42.0956 16.0804C42.0956 15.2982 42.2632 14.6091 42.5985 14.0131C42.9337 13.4171 43.3807 12.8956 43.9395 12.4858C44.4982 12.0574 45.1315 11.7408 45.8765 11.5173C46.6215 11.2938 47.4037 11.2007 48.2232 11.2007C48.633 11.2007 49.0614 11.2193 49.4711 11.2752C49.8995 11.3311 50.2906 11.4056 50.6817 11.4801C51.0542 11.5732 51.4081 11.6663 51.7434 11.7781C52.0786 11.8898 52.3394 12.0016 52.5256 12.1133C52.7864 12.2623 52.9726 12.4113 53.0844 12.5789C53.1961 12.7279 53.252 12.9328 53.252 13.1936V14.0689C53.252 14.4601 53.103 14.6649 52.8236 14.6649C52.6746 14.6649 52.4325 14.5904 52.1159 14.4414C51.0542 13.9572 49.8622 13.7151 48.5399 13.7151C47.4782 13.7151 46.6401 13.8827 46.0627 14.2366C45.4854 14.5904 45.1874 15.1306 45.1874 15.8942C45.1874 16.4157 45.3736 16.8627 45.7461 17.2166C46.1186 17.5704 46.8077 17.9243 47.7949 18.2409L50.4396 19.0791C51.7806 19.5074 52.7491 20.1034 53.3265 20.8671C53.9039 21.6307 54.1833 22.5061 54.1833 23.4746C54.1833 24.2755 54.0156 25.0018 53.699 25.6351C53.3638 26.2683 52.9168 26.8271 52.3394 27.2741C51.762 27.7397 51.0729 28.075 50.272 28.3171C49.4339 28.5778 48.5585 28.7082 47.6086 28.7082Z" fill="white"/>
<path fill-rule="evenodd" clip-rule="evenodd" d="M51.1287 37.7598C45.0011 42.2857 36.0984 44.6883 28.4435 44.6883C17.7155 44.6883 8.04909 40.7212 0.748088 34.1279C0.170713 33.6064 0.692213 32.8987 1.38134 33.3084C9.27834 37.8902 19.0192 40.6653 29.0954 40.6653C35.8935 40.6653 43.3621 39.2498 50.2347 36.3443C51.2591 35.8787 52.1345 37.0148 51.1287 37.7598Z" fill="#FF9900"/>
<path fill-rule="evenodd" clip-rule="evenodd" d="M53.6803 34.8542C52.8981 33.8485 48.5026 34.37 46.5098 34.6121C45.9138 34.6866 45.8206 34.1651 46.3608 33.774C49.8622 31.3155 55.6173 32.0232 56.2878 32.8427C56.9583 33.6808 56.1016 39.436 52.8236 42.1925C52.3207 42.6208 51.8365 42.3973 52.06 41.8386C52.805 39.9947 54.4626 35.8413 53.6803 34.8542Z" fill="#FF9900"/>
</svg>
