<svg width="29" height="28" viewBox="0 0 29 28" fill="none" xmlns="http://www.w3.org/2000/svg">
<path d="M14.6599 14.875C14.6599 15.1071 14.5677 15.3296 14.4036 15.4937C14.2395 15.6578 14.017 15.75 13.7849 15.75H8.53491C8.30285 15.75 8.08029 15.6578 7.91619 15.4937C7.7521 15.3296 7.65991 15.1071 7.65991 14.875C7.65991 14.6429 7.7521 14.4204 7.91619 14.2563C8.08029 14.0922 8.30285 14 8.53491 14H13.7849C14.017 14 14.2395 14.0922 14.4036 14.2563C14.5677 14.4204 14.6599 14.6429 14.6599 14.875ZM13.7849 10.5H8.53491C8.30285 10.5 8.08029 10.5922 7.91619 10.7563C7.7521 10.9204 7.65991 11.1429 7.65991 11.375C7.65991 11.6071 7.7521 11.8296 7.91619 11.9937C8.08029 12.1578 8.30285 12.25 8.53491 12.25H13.7849C14.017 12.25 14.2395 12.1578 14.4036 11.9937C14.5677 11.8296 14.6599 11.6071 14.6599 11.375C14.6599 11.1429 14.5677 10.9204 14.4036 10.7563C14.2395 10.5922 14.017 10.5 13.7849 10.5ZM26.0349 17.6608V24.5C26.0363 24.6543 25.9969 24.8061 25.9207 24.9403C25.8444 25.0744 25.7341 25.1859 25.6008 25.2637C25.4676 25.3414 25.3162 25.3825 25.1619 25.3829C25.0076 25.3832 24.856 25.3428 24.7224 25.2656L22.0974 23.7628L19.4724 25.2656C19.3388 25.3428 19.1872 25.3832 19.0329 25.3829C18.8787 25.3825 18.7272 25.3414 18.594 25.2637C18.4607 25.1859 18.3504 25.0744 18.2742 24.9403C18.1979 24.8061 18.1585 24.6543 18.1599 24.5V21.875H5.03491C4.57078 21.875 4.12566 21.6906 3.79748 21.3624C3.46929 21.0342 3.28491 20.5891 3.28491 20.125V6.125C3.28491 5.66087 3.46929 5.21575 3.79748 4.88756C4.12566 4.55937 4.57078 4.375 5.03491 4.375H24.2849C24.749 4.375 25.1942 4.55937 25.5223 4.88756C25.8505 5.21575 26.0349 5.66087 26.0349 6.125V9.46422C26.588 9.9939 27.0282 10.6301 27.3289 11.3344C27.6296 12.0387 27.7847 12.7967 27.7847 13.5625C27.7847 14.3283 27.6296 15.0863 27.3289 15.7906C27.0282 16.4949 26.588 17.1311 26.0349 17.6608ZM18.1599 20.125V17.6608C17.2064 16.7412 16.6038 15.5176 16.4561 14.2012C16.3083 12.8847 16.6248 11.558 17.3508 10.4499C18.0768 9.34189 19.1668 8.52201 20.4327 8.13179C21.6986 7.74157 23.0611 7.80548 24.2849 8.3125V6.125H5.03491V20.125H18.1599ZM24.2849 18.8125C23.592 19.102 22.8484 19.2511 22.0974 19.2511C21.3464 19.2511 20.6029 19.102 19.9099 18.8125V22.9928L21.6599 21.9909C21.7921 21.9154 21.9418 21.8756 22.0941 21.8756C22.2464 21.8756 22.3961 21.9154 22.5283 21.9909L24.2783 22.9928L24.2849 18.8125ZM26.0349 13.5625C26.0349 12.7837 25.804 12.0225 25.3713 11.3749C24.9387 10.7274 24.3237 10.2227 23.6042 9.92472C22.8847 9.6267 22.093 9.54873 21.3292 9.70066C20.5654 9.85259 19.8638 10.2276 19.3132 10.7783C18.7625 11.3289 18.3875 12.0305 18.2356 12.7943C18.0836 13.5581 18.1616 14.3498 18.4596 15.0693C18.7577 15.7888 19.2623 16.4038 19.9099 16.8364C20.5574 17.2691 21.3186 17.5 22.0974 17.5C22.6145 17.5 23.1265 17.3982 23.6042 17.2003C24.0819 17.0024 24.516 16.7124 24.8816 16.3467C25.2473 15.9811 25.5373 15.547 25.7352 15.0693C25.9331 14.5916 26.0349 14.0796 26.0349 13.5625Z" fill="#F1F1EF"/>
</svg>
