<svg width="29" height="28" viewBox="0 0 29 28" fill="none" xmlns="http://www.w3.org/2000/svg">
<path d="M26.0349 22.75C26.0349 22.9821 25.9427 23.2046 25.7786 23.3687C25.6145 23.5328 25.392 23.625 25.1599 23.625H4.15991C3.92785 23.625 3.70529 23.5328 3.54119 23.3687C3.3771 23.2046 3.28491 22.9821 3.28491 22.75V5.25C3.28491 5.01794 3.3771 4.79538 3.54119 4.63128C3.70529 4.46719 3.92785 4.375 4.15991 4.375C4.39198 4.375 4.61454 4.46719 4.77863 4.63128C4.94272 4.79538 5.03491 5.01794 5.03491 5.25V17.138L10.5408 11.6309C10.6221 11.5496 10.7186 11.485 10.8248 11.441C10.9311 11.397 11.0449 11.3743 11.1599 11.3743C11.2749 11.3743 11.3888 11.397 11.495 11.441C11.6012 11.485 11.6977 11.5496 11.779 11.6309L14.6599 14.513L20.4229 8.75H18.1599C17.9278 8.75 17.7053 8.65781 17.5412 8.49372C17.3771 8.32962 17.2849 8.10706 17.2849 7.875C17.2849 7.64294 17.3771 7.42038 17.5412 7.25628C17.7053 7.09219 17.9278 7 18.1599 7H22.5349C22.767 7 22.9895 7.09219 23.1536 7.25628C23.3177 7.42038 23.4099 7.64294 23.4099 7.875V12.25C23.4099 12.4821 23.3177 12.7046 23.1536 12.8687C22.9895 13.0328 22.767 13.125 22.5349 13.125C22.3028 13.125 22.0803 13.0328 21.9162 12.8687C21.7521 12.7046 21.6599 12.4821 21.6599 12.25V9.98703L15.279 16.3691C15.1977 16.4504 15.1012 16.515 14.995 16.559C14.8888 16.603 14.7749 16.6257 14.6599 16.6257C14.5449 16.6257 14.4311 16.603 14.3248 16.559C14.2186 16.515 14.1221 16.4504 14.0408 16.3691L11.1599 13.487L5.03491 19.612V21.875H25.1599C25.392 21.875 25.6145 21.9672 25.7786 22.1313C25.9427 22.2954 26.0349 22.5179 26.0349 22.75Z" fill="#F1F1EF"/>
</svg>
