<svg width="28" height="28" viewBox="0 0 28 28" fill="none" xmlns="http://www.w3.org/2000/svg">
<path d="M14.8749 8.75007V13.5046L18.8255 15.8748C19.0245 15.9943 19.1679 16.1879 19.2241 16.4132C19.2803 16.6384 19.2447 16.8767 19.1252 17.0757C19.0057 17.2747 18.8121 17.4181 18.5868 17.4743C18.3616 17.5305 18.1233 17.4949 17.9243 17.3754L13.5493 14.7504C13.4198 14.6726 13.3127 14.5626 13.2383 14.4311C13.1639 14.2996 13.1249 14.1511 13.1249 14.0001V8.75007C13.1249 8.518 13.2171 8.29544 13.3812 8.13135C13.5453 7.96726 13.7679 7.87507 13.9999 7.87507C14.232 7.87507 14.4545 7.96726 14.6186 8.13135C14.7827 8.29544 14.8749 8.518 14.8749 8.75007ZM24.4999 6.12507C24.2679 6.12507 24.0453 6.21726 23.8812 6.38135C23.7171 6.54544 23.6249 6.768 23.6249 7.00007V8.96882C22.9304 8.16382 22.2216 7.38835 21.4243 6.58116C19.9651 5.12178 18.1081 4.12477 16.0855 3.71472C14.0629 3.30467 11.9643 3.49976 10.0519 4.27561C8.13953 5.05146 6.49819 6.37367 5.33298 8.07702C4.16776 9.78037 3.53035 11.7893 3.50038 13.8529C3.4704 15.9164 4.0492 17.9431 5.16446 19.6795C6.27971 21.416 7.88196 22.7853 9.771 23.6164C11.66 24.4475 13.7521 24.7034 15.7858 24.3523C17.8194 24.0011 19.7046 23.0585 21.2055 21.6421C21.2891 21.5631 21.3564 21.4684 21.4034 21.3634C21.4504 21.2585 21.4762 21.1453 21.4795 21.0303C21.4827 20.9153 21.4633 20.8008 21.4223 20.6934C21.3813 20.5859 21.3195 20.4876 21.2405 20.404C21.1615 20.3204 21.0669 20.2532 20.9619 20.2062C20.8569 20.1592 20.7437 20.1333 20.6287 20.1301C20.5138 20.1268 20.3993 20.1462 20.2918 20.1872C20.1844 20.2282 20.086 20.29 20.0024 20.369C18.7512 21.5481 17.1804 22.3325 15.486 22.6243C13.7917 22.916 12.0489 22.7021 10.4754 22.0093C8.90193 21.3165 7.56738 20.1755 6.63845 18.7288C5.70952 17.2821 5.22738 15.5938 5.25223 13.8747C5.27708 12.1556 5.80783 10.4819 6.77819 9.06263C7.74855 7.64337 9.11552 6.54143 10.7084 5.89441C12.3013 5.24739 14.0495 5.08396 15.7347 5.42455C17.4199 5.76513 18.9674 6.59462 20.184 7.80944C21.0743 8.71069 21.8541 9.57913 22.6405 10.5001H20.1249C19.8929 10.5001 19.6703 10.5923 19.5062 10.7564C19.3421 10.9204 19.2499 11.143 19.2499 11.3751C19.2499 11.6071 19.3421 11.8297 19.5062 11.9938C19.6703 12.1579 19.8929 12.2501 20.1249 12.2501H24.4999C24.732 12.2501 24.9545 12.1579 25.1186 11.9938C25.2827 11.8297 25.3749 11.6071 25.3749 11.3751V7.00007C25.3749 6.768 25.2827 6.54544 25.1186 6.38135C24.9545 6.21726 24.732 6.12507 24.4999 6.12507Z" fill="#F1F1EF"/>
</svg>
