<svg width="22" height="22" viewBox="0 0 22 22" fill="none" xmlns="http://www.w3.org/2000/svg">
<path d="M5.94004 8.09104L2.44926 11L5.94004 13.909C6.0114 13.9661 6.07066 14.0369 6.11434 14.1172C6.15802 14.1975 6.18524 14.2858 6.19442 14.3767C6.20359 14.4677 6.19454 14.5595 6.16778 14.647C6.14102 14.7344 6.09709 14.8156 6.03858 14.8858C5.98006 14.956 5.90812 15.0139 5.82697 15.056C5.74582 15.0981 5.65709 15.1236 5.56597 15.131C5.47486 15.1384 5.38318 15.1275 5.29631 15.099C5.20943 15.0706 5.12911 15.0251 5.06004 14.9652L0.935038 11.5277C0.857636 11.4632 0.795364 11.3824 0.75263 11.2912C0.709895 11.1999 0.687744 11.1004 0.687744 10.9996C0.687744 10.8988 0.709895 10.7993 0.75263 10.708C0.795364 10.6168 0.857636 10.536 0.935038 10.4715L5.06004 7.03401C5.20021 6.91731 5.381 6.86108 5.56263 6.87768C5.74426 6.89428 5.91186 6.98235 6.02855 7.12252C6.14525 7.26269 6.20148 7.44348 6.18488 7.62511C6.16828 7.80674 6.08021 7.97434 5.94004 8.09104ZM21.065 10.4715L16.94 7.03401C16.8706 6.97623 16.7905 6.93268 16.7043 6.90586C16.6181 6.87903 16.5274 6.86946 16.4374 6.87768C16.3475 6.8859 16.2601 6.91175 16.1801 6.95376C16.1002 6.99577 16.0293 7.05312 15.9715 7.12252C15.8548 7.26269 15.7986 7.44348 15.8152 7.62511C15.8318 7.80674 15.9199 7.97434 16.06 8.09104L19.5508 11L16.06 13.909C15.9887 13.9661 15.9294 14.0369 15.8857 14.1172C15.8421 14.1975 15.8148 14.2858 15.8057 14.3767C15.7965 14.4677 15.8055 14.5595 15.8323 14.647C15.8591 14.7344 15.903 14.8156 15.9615 14.8858C16.02 14.956 16.092 15.0139 16.1731 15.056C16.2543 15.0981 16.343 15.1236 16.4341 15.131C16.5252 15.1384 16.6169 15.1275 16.7038 15.099C16.7906 15.0706 16.871 15.0251 16.94 14.9652L21.065 11.5277C21.1424 11.4632 21.2047 11.3824 21.2474 11.2912C21.2902 11.1999 21.3123 11.1004 21.3123 10.9996C21.3123 10.8988 21.2902 10.7993 21.2474 10.708C21.2047 10.6168 21.1424 10.536 21.065 10.4715ZM13.9846 2.79127C13.8998 2.76046 13.8097 2.74667 13.7195 2.75068C13.6293 2.75469 13.5408 2.77643 13.459 2.81465C13.3772 2.85288 13.3037 2.90684 13.2428 2.97346C13.1818 3.04008 13.1346 3.11805 13.1038 3.20291L7.60379 18.3279C7.57284 18.4128 7.55895 18.503 7.56289 18.5933C7.56684 18.6836 7.58855 18.7722 7.62678 18.8541C7.66502 18.936 7.71902 19.0096 7.78571 19.0706C7.8524 19.1316 7.93046 19.1788 8.01543 19.2096C8.09075 19.2364 8.1701 19.2501 8.25004 19.25C8.39123 19.25 8.52899 19.2066 8.64461 19.1255C8.76024 19.0445 8.84811 18.9298 8.89629 18.7971L14.3963 3.67213C14.4271 3.58727 14.4409 3.49716 14.4369 3.40696C14.4329 3.31677 14.4111 3.22824 14.3729 3.14645C14.3347 3.06465 14.2807 2.99118 14.2141 2.93024C14.1475 2.8693 14.0695 2.82208 13.9846 2.79127Z" fill="#F1F1EF"/>
</svg>
