<svg width="16" height="16" viewBox="0 0 16 16" fill="none" xmlns="http://www.w3.org/2000/svg">
<mask id="path-1-inside-1_4762_11490" fill="white">
<path d="M10.2806 10.2194C10.3853 10.3244 10.4564 10.458 10.4852 10.6034C10.5139 10.7488 10.4989 10.8995 10.442 11.0364C10.3852 11.1733 10.2891 11.2903 10.1658 11.3726C10.0425 11.4549 9.8976 11.4988 9.74938 11.4988C9.60115 11.4988 9.45625 11.4549 9.33297 11.3726C9.20969 11.2903 9.11356 11.1733 9.05672 11.0364C8.99988 10.8995 8.98487 10.7488 9.0136 10.6034C9.04233 10.458 9.1135 10.3244 9.21813 10.2194C9.28781 10.1495 9.3706 10.094 9.46176 10.0561C9.55293 10.0183 9.65067 9.99878 9.74938 9.99878C9.84809 9.99878 9.94583 10.0183 10.037 10.0561C10.1282 10.094 10.211 10.1495 10.2806 10.2194ZM5.21813 9.71937C5.1135 9.82437 5.04233 9.95801 5.0136 10.1034C4.98487 10.2488 4.99988 10.3995 5.05672 10.5364C5.11356 10.6733 5.20969 10.7903 5.33297 10.8726C5.45625 10.9549 5.60115 10.9988 5.74938 10.9988C5.8976 10.9988 6.0425 10.9549 6.16578 10.8726C6.28907 10.7903 6.3852 10.6733 6.44204 10.5364C6.49888 10.3995 6.51388 10.2488 6.48516 10.1034C6.45643 9.95801 6.38526 9.82437 6.28063 9.71937C6.21097 9.64964 6.12826 9.59432 6.03721 9.55658C5.94616 9.51884 5.84856 9.49941 5.75 9.49941C5.65144 9.49941 5.55385 9.51884 5.4628 9.55658C5.37175 9.59432 5.28903 9.64964 5.21938 9.71937H5.21813ZM5.78063 7.28188C5.88526 7.17688 5.95643 7.04324 5.98516 6.89783C6.01388 6.75241 5.99888 6.60175 5.94204 6.46485C5.8852 6.32796 5.78907 6.21098 5.66578 6.12868C5.5425 6.04639 5.3976 6.00247 5.24938 6.00247C5.10115 6.00247 4.95625 6.04639 4.83297 6.12868C4.70969 6.21098 4.61356 6.32796 4.55672 6.46485C4.49988 6.60175 4.48487 6.75241 4.5136 6.89783C4.54233 7.04324 4.6135 7.17688 4.71813 7.28188C4.78789 7.35171 4.87075 7.40709 4.96196 7.44484C5.05316 7.48259 5.15093 7.50196 5.24964 7.50184C5.34835 7.50173 5.44606 7.48212 5.53718 7.44416C5.6283 7.4062 5.71103 7.35063 5.78063 7.28062V7.28188ZM8.78063 7.21938C8.67564 7.11475 8.54199 7.04357 8.39658 7.01485C8.25116 6.98612 8.1005 7.00112 7.96361 7.05796C7.82671 7.11481 7.70973 7.21094 7.62744 7.33422C7.54514 7.4575 7.50122 7.6024 7.50122 7.75063C7.50122 7.89885 7.54514 8.04375 7.62744 8.16703C7.70973 8.29031 7.82671 8.38644 7.96361 8.44328C8.1005 8.50013 8.25116 8.51513 8.39658 8.4864C8.54199 8.45768 8.67564 8.3865 8.78063 8.28187C8.85055 8.2122 8.90602 8.1294 8.94388 8.03824C8.98173 7.94707 9.00122 7.84934 9.00122 7.75063C9.00122 7.65191 8.98173 7.55417 8.94388 7.46301C8.90602 7.37185 8.85055 7.28905 8.78063 7.21938ZM14.5 8C14.5 9.28558 14.1188 10.5423 13.4046 11.6112C12.6903 12.6801 11.6752 13.5132 10.4874 14.0052C9.29973 14.4972 7.99279 14.6259 6.73192 14.3751C5.47104 14.1243 4.31285 13.5052 3.40381 12.5962C2.49477 11.6872 1.8757 10.529 1.6249 9.26809C1.37409 8.00721 1.50282 6.70028 1.99479 5.51256C2.48676 4.32484 3.31988 3.30968 4.3888 2.59545C5.45772 1.88122 6.71442 1.5 8 1.5C8.13261 1.5 8.25979 1.55268 8.35356 1.64645C8.44732 1.74021 8.5 1.86739 8.5 2C8.5 2.66304 8.76339 3.29893 9.23224 3.76777C9.70108 4.23661 10.337 4.5 11 4.5C11.1326 4.5 11.2598 4.55268 11.3536 4.64645C11.4473 4.74021 11.5 4.86739 11.5 5C11.5 5.66304 11.7634 6.29893 12.2322 6.76777C12.7011 7.23661 13.337 7.5 14 7.5C14.1326 7.5 14.2598 7.55268 14.3536 7.64645C14.4473 7.74021 14.5 7.86739 14.5 8ZM13.4806 8.46187C12.7318 8.34822 12.0398 7.99526 11.5082 7.45576C10.9766 6.91625 10.6339 6.21918 10.5313 5.46875C9.78082 5.36614 9.08375 5.0234 8.54424 4.49178C8.00474 3.96017 7.65178 3.26822 7.53813 2.51938C6.49339 2.60743 5.49559 2.99226 4.66229 3.62853C3.82898 4.26479 3.1949 5.12598 2.83475 6.11062C2.47459 7.09526 2.40338 8.16232 2.62949 9.18609C2.8556 10.2099 3.36961 11.1477 4.11097 11.889C4.85233 12.6304 5.79014 13.1444 6.81391 13.3705C7.83768 13.5966 8.90475 13.5254 9.88939 13.1653C10.874 12.8051 11.7352 12.171 12.3715 11.3377C13.0077 10.5044 13.3926 9.50661 13.4806 8.46187Z"/>
</mask>
<path d="M10.2806 10.2194C10.3853 10.3244 10.4564 10.458 10.4852 10.6034C10.5139 10.7488 10.4989 10.8995 10.442 11.0364C10.3852 11.1733 10.2891 11.2903 10.1658 11.3726C10.0425 11.4549 9.8976 11.4988 9.74938 11.4988C9.60115 11.4988 9.45625 11.4549 9.33297 11.3726C9.20969 11.2903 9.11356 11.1733 9.05672 11.0364C8.99988 10.8995 8.98487 10.7488 9.0136 10.6034C9.04233 10.458 9.1135 10.3244 9.21813 10.2194C9.28781 10.1495 9.3706 10.094 9.46176 10.0561C9.55293 10.0183 9.65067 9.99878 9.74938 9.99878C9.84809 9.99878 9.94583 10.0183 10.037 10.0561C10.1282 10.094 10.211 10.1495 10.2806 10.2194ZM5.21813 9.71937C5.1135 9.82437 5.04233 9.95801 5.0136 10.1034C4.98487 10.2488 4.99988 10.3995 5.05672 10.5364C5.11356 10.6733 5.20969 10.7903 5.33297 10.8726C5.45625 10.9549 5.60115 10.9988 5.74938 10.9988C5.8976 10.9988 6.0425 10.9549 6.16578 10.8726C6.28907 10.7903 6.3852 10.6733 6.44204 10.5364C6.49888 10.3995 6.51388 10.2488 6.48516 10.1034C6.45643 9.95801 6.38526 9.82437 6.28063 9.71937C6.21097 9.64964 6.12826 9.59432 6.03721 9.55658C5.94616 9.51884 5.84856 9.49941 5.75 9.49941C5.65144 9.49941 5.55385 9.51884 5.4628 9.55658C5.37175 9.59432 5.28903 9.64964 5.21938 9.71937H5.21813ZM5.78063 7.28188C5.88526 7.17688 5.95643 7.04324 5.98516 6.89783C6.01388 6.75241 5.99888 6.60175 5.94204 6.46485C5.8852 6.32796 5.78907 6.21098 5.66578 6.12868C5.5425 6.04639 5.3976 6.00247 5.24938 6.00247C5.10115 6.00247 4.95625 6.04639 4.83297 6.12868C4.70969 6.21098 4.61356 6.32796 4.55672 6.46485C4.49988 6.60175 4.48487 6.75241 4.5136 6.89783C4.54233 7.04324 4.6135 7.17688 4.71813 7.28188C4.78789 7.35171 4.87075 7.40709 4.96196 7.44484C5.05316 7.48259 5.15093 7.50196 5.24964 7.50184C5.34835 7.50173 5.44606 7.48212 5.53718 7.44416C5.6283 7.4062 5.71103 7.35063 5.78063 7.28062V7.28188ZM8.78063 7.21938C8.67564 7.11475 8.54199 7.04357 8.39658 7.01485C8.25116 6.98612 8.1005 7.00112 7.96361 7.05796C7.82671 7.11481 7.70973 7.21094 7.62744 7.33422C7.54514 7.4575 7.50122 7.6024 7.50122 7.75063C7.50122 7.89885 7.54514 8.04375 7.62744 8.16703C7.70973 8.29031 7.82671 8.38644 7.96361 8.44328C8.1005 8.50013 8.25116 8.51513 8.39658 8.4864C8.54199 8.45768 8.67564 8.3865 8.78063 8.28187C8.85055 8.2122 8.90602 8.1294 8.94388 8.03824C8.98173 7.94707 9.00122 7.84934 9.00122 7.75063C9.00122 7.65191 8.98173 7.55417 8.94388 7.46301C8.90602 7.37185 8.85055 7.28905 8.78063 7.21938ZM14.5 8C14.5 9.28558 14.1188 10.5423 13.4046 11.6112C12.6903 12.6801 11.6752 13.5132 10.4874 14.0052C9.29973 14.4972 7.99279 14.6259 6.73192 14.3751C5.47104 14.1243 4.31285 13.5052 3.40381 12.5962C2.49477 11.6872 1.8757 10.529 1.6249 9.26809C1.37409 8.00721 1.50282 6.70028 1.99479 5.51256C2.48676 4.32484 3.31988 3.30968 4.3888 2.59545C5.45772 1.88122 6.71442 1.5 8 1.5C8.13261 1.5 8.25979 1.55268 8.35356 1.64645C8.44732 1.74021 8.5 1.86739 8.5 2C8.5 2.66304 8.76339 3.29893 9.23224 3.76777C9.70108 4.23661 10.337 4.5 11 4.5C11.1326 4.5 11.2598 4.55268 11.3536 4.64645C11.4473 4.74021 11.5 4.86739 11.5 5C11.5 5.66304 11.7634 6.29893 12.2322 6.76777C12.7011 7.23661 13.337 7.5 14 7.5C14.1326 7.5 14.2598 7.55268 14.3536 7.64645C14.4473 7.74021 14.5 7.86739 14.5 8ZM13.4806 8.46187C12.7318 8.34822 12.0398 7.99526 11.5082 7.45576C10.9766 6.91625 10.6339 6.21918 10.5313 5.46875C9.78082 5.36614 9.08375 5.0234 8.54424 4.49178C8.00474 3.96017 7.65178 3.26822 7.53813 2.51938C6.49339 2.60743 5.49559 2.99226 4.66229 3.62853C3.82898 4.26479 3.1949 5.12598 2.83475 6.11062C2.47459 7.09526 2.40338 8.16232 2.62949 9.18609C2.8556 10.2099 3.36961 11.1477 4.11097 11.889C4.85233 12.6304 5.79014 13.1444 6.81391 13.3705C7.83768 13.5966 8.90475 13.5254 9.88939 13.1653C10.874 12.8051 11.7352 12.171 12.3715 11.3377C13.0077 10.5044 13.3926 9.50661 13.4806 8.46187Z" fill="#F1F1EF" stroke="#F1F1EF" stroke-width="2" mask="url(#path-1-inside-1_4762_11490)"/>
</svg>
