<svg width="56" height="56" viewBox="0 0 56 56" fill="none" xmlns="http://www.w3.org/2000/svg">
<path d="M52.7378 0L48.2394 50.3941L28.0186 56L7.85356 50.402L3.35986 0H52.7378Z" fill="#264DE4"/>
<path d="M44.3882 47.1852L48.2324 4.12109H28.0488V51.7151L44.3882 47.1852Z" fill="#2965F1"/>
<path d="M13.6616 22.8145L14.2157 28.996H28.0489V22.8145H13.6616Z" fill="#EBEBEB"/>
<path d="M28.0489 10.3027H28.0275H12.5483L13.1103 16.4844H28.0489V10.3027Z" fill="#EBEBEB"/>
<path d="M28.0487 45.3002V38.8688L28.0217 38.876L21.1372 37.017L20.6971 32.0869H17.3517H14.4917L15.3577 41.7929L28.0203 45.3081L28.0487 45.3002Z" fill="#EBEBEB"/>
<path d="M35.6393 28.996L34.9218 37.0131L28.0273 38.8739V45.3051L40.7 41.7929L40.7929 40.7485L42.2456 24.4744L42.3964 22.8145L43.5124 10.3027H28.0273V16.4844H36.7378L36.1754 22.8145H28.0273V28.996H35.6393Z" fill="white"/>
</svg>
