<svg width="22" height="22" viewBox="0 0 22 22" fill="none" xmlns="http://www.w3.org/2000/svg">
<path d="M17.875 3.4375H4.125C3.57799 3.4375 3.05339 3.6548 2.66659 4.04159C2.2798 4.42839 2.0625 4.95299 2.0625 5.5V15.125C2.0625 15.672 2.2798 16.1966 2.66659 16.5834C3.05339 16.9702 3.57799 17.1875 4.125 17.1875H10.3125V18.5625H8.25C8.06766 18.5625 7.8928 18.6349 7.76386 18.7639C7.63493 18.8928 7.5625 19.0677 7.5625 19.25C7.5625 19.4323 7.63493 19.6072 7.76386 19.7361C7.8928 19.8651 8.06766 19.9375 8.25 19.9375H13.75C13.9323 19.9375 14.1072 19.8651 14.2361 19.7361C14.3651 19.6072 14.4375 19.4323 14.4375 19.25C14.4375 19.0677 14.3651 18.8928 14.2361 18.7639C14.1072 18.6349 13.9323 18.5625 13.75 18.5625H11.6875V17.1875H17.875C18.422 17.1875 18.9466 16.9702 19.3334 16.5834C19.7202 16.1966 19.9375 15.672 19.9375 15.125V5.5C19.9375 4.95299 19.7202 4.42839 19.3334 4.04159C18.9466 3.6548 18.422 3.4375 17.875 3.4375ZM4.125 4.8125H17.875C18.0573 4.8125 18.2322 4.88493 18.3611 5.01386C18.4901 5.1428 18.5625 5.31766 18.5625 5.5V12.375H3.4375V5.5C3.4375 5.31766 3.50993 5.1428 3.63886 5.01386C3.7678 4.88493 3.94266 4.8125 4.125 4.8125ZM17.875 15.8125H4.125C3.94266 15.8125 3.7678 15.7401 3.63886 15.6111C3.50993 15.4822 3.4375 15.3073 3.4375 15.125V13.75H18.5625V15.125C18.5625 15.3073 18.4901 15.4822 18.3611 15.6111C18.2322 15.7401 18.0573 15.8125 17.875 15.8125Z" fill="#F1F1EF"/>
</svg>
