<svg width="29" height="28" viewBox="0 0 29 28" fill="none" xmlns="http://www.w3.org/2000/svg">
<path d="M24.8301 7.875H23.0801V7C23.0801 6.30381 22.8035 5.63613 22.3112 5.14384C21.819 4.65156 21.1513 4.375 20.4551 4.375H4.70508C4.00888 4.375 3.34121 4.65156 2.84892 5.14384C2.35664 5.63613 2.08008 6.30381 2.08008 7V17.5C2.08008 18.1962 2.35664 18.8639 2.84892 19.3562C3.34121 19.8484 4.00888 20.125 4.70508 20.125H16.9551V21C16.9551 21.6962 17.2316 22.3639 17.7239 22.8562C18.2162 23.3484 18.8839 23.625 19.5801 23.625H24.8301C25.5263 23.625 26.194 23.3484 26.6862 22.8562C27.1785 22.3639 27.4551 21.6962 27.4551 21V10.5C27.4551 9.80381 27.1785 9.13613 26.6862 8.64384C26.194 8.15156 25.5263 7.875 24.8301 7.875ZM4.70508 18.375C4.47301 18.375 4.25045 18.2828 4.08636 18.1187C3.92227 17.9546 3.83008 17.7321 3.83008 17.5V7C3.83008 6.76794 3.92227 6.54538 4.08636 6.38128C4.25045 6.21719 4.47301 6.125 4.70508 6.125H20.4551C20.6871 6.125 20.9097 6.21719 21.0738 6.38128C21.2379 6.54538 21.3301 6.76794 21.3301 7V7.875H19.5801C18.8839 7.875 18.2162 8.15156 17.7239 8.64384C17.2316 9.13613 16.9551 9.80381 16.9551 10.5V18.375H4.70508ZM25.7051 21C25.7051 21.2321 25.6129 21.4546 25.4488 21.6187C25.2847 21.7828 25.0621 21.875 24.8301 21.875H19.5801C19.348 21.875 19.1255 21.7828 18.9614 21.6187C18.7973 21.4546 18.7051 21.2321 18.7051 21V10.5C18.7051 10.2679 18.7973 10.0454 18.9614 9.88128C19.1255 9.71719 19.348 9.625 19.5801 9.625H24.8301C25.0621 9.625 25.2847 9.71719 25.4488 9.88128C25.6129 10.0454 25.7051 10.2679 25.7051 10.5V21ZM15.2051 22.75C15.2051 22.9821 15.1129 23.2046 14.9488 23.3687C14.7847 23.5328 14.5621 23.625 14.3301 23.625H9.95508C9.72301 23.625 9.50045 23.5328 9.33636 23.3687C9.17227 23.2046 9.08008 22.9821 9.08008 22.75C9.08008 22.5179 9.17227 22.2954 9.33636 22.1313C9.50045 21.9672 9.72301 21.875 9.95508 21.875H14.3301C14.5621 21.875 14.7847 21.9672 14.9488 22.1313C15.1129 22.2954 15.2051 22.5179 15.2051 22.75ZM23.9551 12.25C23.9551 12.4821 23.8629 12.7046 23.6988 12.8687C23.5347 13.0328 23.3121 13.125 23.0801 13.125H21.3301C21.098 13.125 20.8755 13.0328 20.7114 12.8687C20.5473 12.7046 20.4551 12.4821 20.4551 12.25C20.4551 12.0179 20.5473 11.7954 20.7114 11.6313C20.8755 11.4672 21.098 11.375 21.3301 11.375H23.0801C23.3121 11.375 23.5347 11.4672 23.6988 11.6313C23.8629 11.7954 23.9551 12.0179 23.9551 12.25Z" fill="#F1F1EF"/>
</svg>
