<svg width="56" height="56" viewBox="0 0 56 56" fill="none" xmlns="http://www.w3.org/2000/svg">
<path d="M55.4467 23.0096C55.2949 22.889 53.877 21.8185 50.887 21.8185C50.0975 21.8219 49.3096 21.8896 48.5311 22.021C47.9524 18.0545 44.673 16.1206 44.526 16.0338L43.7231 15.5708L43.195 16.3328C42.5337 17.3564 42.051 18.4848 41.7676 19.67C41.2322 21.9342 41.5578 24.0609 42.708 25.8791C41.3191 26.6531 39.091 26.8436 38.6402 26.8604H1.75244C0.788947 26.8618 0.00711505 27.6404 0.00186417 28.6038C-0.0411617 31.8354 0.50634 35.0476 1.61741 38.0825C2.88812 41.4149 4.77859 43.8696 7.23812 45.3718C9.9942 47.0597 14.4719 48.0242 19.5477 48.0242C21.8407 48.0314 24.1293 47.8239 26.3837 47.4045C29.5174 46.8291 32.5329 45.7338 35.3054 44.1637C37.5898 42.8408 39.6458 41.1579 41.3939 39.1796C44.3164 35.8713 46.0574 32.1868 47.3522 28.9124H47.8682C51.0679 28.9124 53.0356 27.632 54.1206 26.559C54.8417 25.8747 55.4047 25.041 55.7699 24.1164L55.999 23.4461L55.4467 23.0096Z" fill="#2496ED"/>
<path d="M5.17134 25.7804H10.1144C10.3529 25.7804 10.546 25.5871 10.546 25.3488V20.9457C10.5474 20.7073 10.3552 20.5131 10.1169 20.5117C10.1161 20.5117 10.1152 20.5117 10.1144 20.5117H5.17134C4.93293 20.5117 4.73975 20.705 4.73975 20.9433V20.9457V25.3487C4.73975 25.5871 4.93293 25.7804 5.17134 25.7804Z" fill="#2496ED"/>
<path d="M11.9834 25.7804H16.9265C17.1649 25.7804 17.3581 25.5871 17.3581 25.3488V20.9457C17.3595 20.7073 17.1673 20.5131 16.9289 20.5117C16.9281 20.5117 16.9272 20.5117 16.9265 20.5117H11.9833C11.7436 20.5117 11.5493 20.706 11.5493 20.9457V25.3487C11.5507 25.5875 11.7446 25.7804 11.9834 25.7804Z" fill="#2496ED"/>
<path d="M18.899 25.7804H23.8421C24.0805 25.7804 24.2737 25.5871 24.2737 25.3488V20.9457C24.275 20.7073 24.0828 20.5131 23.8444 20.5117C23.8436 20.5117 23.8428 20.5117 23.842 20.5117H18.8989C18.6605 20.5117 18.4673 20.705 18.4673 20.9433V20.9457V25.3487C18.4674 25.5871 18.6606 25.7804 18.899 25.7804Z" fill="#2496ED"/>
<path d="M25.7324 25.7804H30.6755C30.9143 25.7804 31.1082 25.5876 31.1095 25.3488V20.9457C31.1095 20.706 30.9152 20.5117 30.6755 20.5117H25.7324C25.494 20.5117 25.3008 20.705 25.3008 20.9433V20.9457V25.3487C25.3008 25.5871 25.494 25.7804 25.7324 25.7804Z" fill="#2496ED"/>
<path d="M11.9833 19.4458H16.9264C17.1652 19.4445 17.358 19.2505 17.358 19.0118V14.6088C17.358 14.3704 17.1648 14.1772 16.9264 14.1772H11.9833C11.7446 14.1772 11.5506 14.37 11.5493 14.6088V19.0118C11.5506 19.251 11.7441 19.4445 11.9833 19.4458Z" fill="#2496ED"/>
<path d="M18.8989 19.4458H23.842C24.0807 19.4445 24.2736 19.2505 24.2736 19.0118V14.6088C24.2736 14.3704 24.0803 14.1772 23.842 14.1772H18.8989C18.6605 14.1772 18.4673 14.3705 18.4673 14.6088V19.0118C18.4673 19.2505 18.6602 19.4445 18.8989 19.4458Z" fill="#2496ED"/>
<path d="M25.7324 19.4458H30.6755C30.9147 19.4445 31.1082 19.251 31.1095 19.0118V14.6088C31.1082 14.37 30.9143 14.1772 30.6755 14.1772H25.7324C25.494 14.1772 25.3008 14.3705 25.3008 14.6088V19.0118C25.3008 19.2505 25.4937 19.4445 25.7324 19.4458Z" fill="#2496ED"/>
<path d="M25.7324 13.109H30.6755C30.9143 13.109 31.1082 12.9161 31.1095 12.6774V8.27192C31.1082 8.03313 30.9143 7.84033 30.6755 7.84033H25.7324C25.494 7.84033 25.3008 8.03352 25.3008 8.27192V12.6773C25.3008 12.9157 25.494 13.109 25.7324 13.109Z" fill="#2496ED"/>
<path d="M32.6264 25.7804H37.5695C37.8083 25.7804 38.0022 25.5876 38.0035 25.3488V20.9457C38.0035 20.706 37.8093 20.5117 37.5695 20.5117H32.6264C32.3881 20.5117 32.1948 20.705 32.1948 20.9433V20.9457V25.3487C32.1948 25.5871 32.3881 25.7804 32.6264 25.7804Z" fill="#2496ED"/>
</svg>
