<svg width="56" height="56" viewBox="0 0 56 56" fill="none" xmlns="http://www.w3.org/2000/svg">
<path d="M18.6668 56.0006C23.8188 56.0006 28.0002 51.8193 28.0002 46.6673V37.334H18.6668C13.5148 37.334 9.3335 41.5153 9.3335 46.6673C9.3335 51.8193 13.5148 56.0006 18.6668 56.0006Z" fill="#0ACF83"/>
<path d="M9.3335 28.0003C9.3335 22.8483 13.5148 18.667 18.6668 18.667H28.0002V37.3336H18.6668C13.5148 37.3336 9.3335 33.1523 9.3335 28.0003Z" fill="#A259FF"/>
<path d="M9.3335 9.33382C9.3335 4.18182 13.5148 0.000488281 18.6668 0.000488281H28.0002V18.6671H18.6668C13.5148 18.6671 9.3335 14.4858 9.3335 9.33382Z" fill="#F24E1E"/>
<path d="M28 0.000488281H37.3334C42.4854 0.000488281 46.6667 4.18182 46.6667 9.33382C46.6667 14.4858 42.4854 18.6671 37.3334 18.6671H28V0.000488281Z" fill="#FF7262"/>
<path d="M46.6667 28.0003C46.6667 33.1523 42.4854 37.3336 37.3334 37.3336C32.1813 37.3336 28 33.1523 28 28.0003C28 22.8483 32.1813 18.667 37.3334 18.667C42.4854 18.667 46.6667 22.8483 46.6667 28.0003Z" fill="#1ABCFE"/>
</svg>
