<svg width="56" height="56" viewBox="0 0 56 56" fill="none" xmlns="http://www.w3.org/2000/svg">
<path d="M34.3869 20.2256L28.7865 25.4401L23.5879 14.9498L26.2735 8.91811C26.9522 7.71494 28.0623 7.69905 28.7411 8.91811L34.3869 20.2256Z" fill="#FFA000"/>
<path d="M28.7886 25.4377L7.83984 44.9222L23.59 14.9497L28.7886 25.4377Z" fill="#F57F17"/>
<path d="M40.5274 12.2506C41.5308 11.2949 42.5637 11.6172 42.8248 12.9748L48.2708 44.659L30.2074 55.5034C29.574 55.8575 27.8942 55.996 27.8942 55.996C27.8942 55.996 26.3664 55.8099 25.7807 55.4875L7.83984 44.9223L40.5274 12.2506Z" fill="#FFCA28"/>
<path d="M23.59 14.9499L7.83984 44.9224L14.8591 1.11349C15.1224 -0.244047 15.892 -0.382525 16.5866 0.820642L23.59 14.9499Z" fill="#FFA000"/>
</svg>
