<svg width="28" height="28" viewBox="0 0 28 28" fill="none" xmlns="http://www.w3.org/2000/svg">
<path d="M27.8141 11.8026L25.0229 6.21787C24.9201 6.01231 24.7777 5.82903 24.6041 5.67848C24.4304 5.52793 24.2288 5.41307 24.0107 5.34045C23.7927 5.26783 23.5624 5.23888 23.3332 5.25524C23.1039 5.27161 22.8801 5.33297 22.6746 5.43584L19.9544 6.79537L14.2243 5.27943C14.0773 5.24117 13.9229 5.24117 13.7759 5.27943L8.0457 6.79537L5.32554 5.43584C5.12001 5.33297 4.89622 5.27161 4.66697 5.25524C4.43771 5.23888 4.20748 5.26783 3.98942 5.34045C3.77136 5.41307 3.56973 5.52793 3.39607 5.67848C3.2224 5.82903 3.08009 6.01231 2.97726 6.21787L0.186012 11.8015C0.0831511 12.007 0.0217855 12.2308 0.00541912 12.46C-0.0109472 12.6893 0.0180063 12.9195 0.0906263 13.1376C0.163246 13.3556 0.27811 13.5573 0.428659 13.7309C0.579207 13.9046 0.762491 14.0469 0.968043 14.1497L3.92117 15.6274L9.99039 19.9619C10.0798 20.0256 10.1803 20.0719 10.2868 20.0986L17.2868 21.8486C17.4334 21.8854 17.587 21.8836 17.7327 21.8433C17.8784 21.8031 18.0111 21.7258 18.118 21.619L24.1413 15.5946L27.031 14.1497C27.4459 13.9421 27.7613 13.5782 27.9079 13.138C28.0546 12.6979 28.0204 12.2175 27.813 11.8026H27.8141ZM21.8105 15.4524L18.0469 12.438C17.8783 12.303 17.6658 12.2351 17.4501 12.2474C17.2344 12.2597 17.031 12.3514 16.8788 12.5047C14.9309 14.4669 12.7598 14.2186 11.3751 13.3436L16.1044 8.7499H19.5837L22.5598 14.701L21.8105 15.4524ZM4.54242 6.9999L6.78132 8.11771L3.98461 13.7013L1.75007 12.5846L4.54242 6.9999ZM17.2299 20.0297L10.8741 18.4416L5.49289 14.5982L8.55539 8.47318L14.0001 7.03052L15.0719 7.3138L10.1501 12.0913L10.1413 12.1011C9.95605 12.2864 9.81474 12.5109 9.72783 12.7581C9.64092 13.0053 9.61063 13.2688 9.63918 13.5293C9.66773 13.7898 9.75441 14.0405 9.89281 14.263C10.0312 14.4854 10.2178 14.674 10.4388 14.8147C12.6876 16.2508 15.4012 16.0179 17.5384 14.2679L20.5626 16.6971L17.2299 20.0297ZM24.0112 13.7002L21.2199 8.12209L23.4577 6.9999L26.2501 12.5846L24.0112 13.7002ZM14.4135 23.836C14.3662 24.0251 14.2572 24.193 14.1036 24.3131C13.95 24.4332 13.7608 24.4985 13.5659 24.4988C13.494 24.4987 13.4223 24.4899 13.3526 24.4726L8.79492 23.3329C8.68832 23.3066 8.58772 23.2602 8.49851 23.1961L5.61648 21.1377C5.43927 20.9986 5.32256 20.7964 5.29066 20.5734C5.25875 20.3504 5.3141 20.1236 5.44519 19.9404C5.57628 19.7572 5.773 19.6315 5.99438 19.5897C6.21577 19.5479 6.44476 19.5931 6.63367 19.7158L9.38007 21.678L13.7813 22.7761C14.0064 22.8325 14.1999 22.9759 14.3193 23.1748C14.4387 23.3738 14.4741 23.612 14.4179 23.8371L14.4135 23.836Z" fill="#F1F1EF"/>
</svg>
