<svg width="56" height="56" viewBox="0 0 56 56" fill="none" xmlns="http://www.w3.org/2000/svg">
<path d="M56 0H0V56H56V0Z" fill="#F7DF1E"/>
<path d="M37.6175 43.7504C38.7455 45.5922 40.2131 46.9459 42.8086 46.9459C44.9891 46.9459 46.382 45.8562 46.382 44.3504C46.382 42.5459 44.9508 41.9068 42.5508 40.857L41.2353 40.2926C37.438 38.6748 34.9153 36.6482 34.9153 32.3637C34.9153 28.417 37.9224 25.4126 42.622 25.4126C45.9677 25.4126 48.3731 26.577 50.1064 29.6259L46.0086 32.257C45.1064 30.6393 44.1331 30.0019 42.622 30.0019C41.0806 30.0019 40.1037 30.9797 40.1037 32.257C40.1037 33.8357 41.0815 34.4748 43.3393 35.4526L44.6548 36.0162C49.126 37.9335 51.6504 39.8882 51.6504 44.2828C51.6504 49.0206 47.9286 51.6162 42.9304 51.6162C38.0433 51.6162 34.886 49.2873 33.3411 46.2348L37.6175 43.7504ZM19.0282 44.2064C19.8549 45.673 20.6069 46.913 22.4149 46.913C24.1437 46.913 25.2344 46.2366 25.2344 43.6064V25.713H30.4966V43.6775C30.4966 49.1264 27.302 51.6064 22.6389 51.6064C18.4255 51.6064 15.9855 49.4259 14.7446 46.7997L19.0282 44.2064Z" fill="black"/>
</svg>
