<svg width="103" height="28" viewBox="0 0 103 28" fill="none" xmlns="http://www.w3.org/2000/svg">
<g clip-path="url(#clip0_4414_1527)">
<path d="M27.303 14.1368C27.303 17.4446 27.305 20.7523 27.303 24.06C27.303 24.9658 27.1331 25.8211 26.5468 26.5631C25.7219 27.6104 24.2561 28.0815 22.9742 27.6771C21.6681 27.2647 20.734 26.0758 20.6572 24.7353C20.5985 23.7204 20.922 22.8631 21.6499 22.1454C22.5334 21.276 23.4352 20.4288 23.9952 19.2784C25.914 15.3398 23.5302 10.6471 19.2136 9.9314C16.9855 9.56343 15.0648 10.2448 13.4311 11.7571C12.6668 12.4648 11.9531 13.225 11.2152 13.9569C10.0587 15.1053 8.32191 15.1235 7.18765 14.0054C6.06351 12.8954 6.06148 11.1344 7.20787 9.98195C10.0263 7.14935 12.8569 4.32888 15.6834 1.50032C16.2839 0.899829 17.0057 0.602618 17.8549 0.602618C19.8363 0.606662 21.8218 0.669339 23.7991 0.5824C25.6289 0.501526 27.3212 1.96534 27.3111 4.10647C27.2949 7.44858 27.307 10.7887 27.307 14.1308L27.303 14.1368Z" fill="white"/>
<path d="M0.00174763 14.1975C0.00174763 10.8392 -0.00229605 7.48093 0.00376948 4.12265C0.00781316 2.4425 0.92573 1.15054 2.39359 0.713822C3.83516 0.285191 5.38389 0.883657 6.15017 2.16753C6.92858 3.46959 6.74055 5.07898 5.70537 6.16673C5.03614 6.87033 4.29412 7.50115 3.728 8.30989C2.03977 10.7179 2.3208 14.2339 4.31636 16.4134C6.82749 19.1551 11.1623 19.3653 13.9707 16.5246C14.6662 15.821 15.3617 15.1134 16.0754 14.426C16.9428 13.5889 17.9881 13.3685 19.1041 13.7608C20.1332 14.1227 20.7378 14.9112 20.9137 15.9929C21.0471 16.8138 20.8732 17.5942 20.2829 18.1886C17.3653 21.1344 14.4276 24.0641 11.4899 26.9917C10.857 27.6225 10.0402 27.8267 9.18092 27.8348C7.3006 27.855 5.42029 27.853 3.53997 27.8369C1.40693 27.8166 0.0118569 26.4135 0.00579132 24.2723C-0.0043179 20.9141 0.00376948 17.5558 0.00174763 14.1975Z" fill="white"/>
</g>
<path d="M91.6919 23.3656V10.5496H93.4019L93.5999 11.9356C94.2119 11.1256 95.1659 10.4416 96.6239 10.4416C99.1439 10.4416 100.998 12.2056 100.998 15.1576C100.998 18.0016 99.1439 19.8736 96.6419 19.8736C95.2019 19.8736 94.2119 19.2976 93.6539 18.4516V23.3656H91.6919ZM96.2999 18.2176C97.9199 18.2176 98.9999 16.9936 98.9999 15.1576C98.9999 13.3396 97.9199 12.0976 96.2999 12.0976C94.6979 12.0976 93.6179 13.3396 93.6179 15.1396C93.6179 16.9756 94.6979 18.2176 96.2999 18.2176Z" fill="white"/>
<path d="M80.8303 23.3656V10.5496H82.5403L82.7383 11.9356C83.3503 11.1256 84.3043 10.4416 85.7623 10.4416C88.2823 10.4416 90.1363 12.2056 90.1363 15.1576C90.1363 18.0016 88.2823 19.8736 85.7803 19.8736C84.3403 19.8736 83.3503 19.2976 82.7923 18.4516V23.3656H80.8303ZM85.4383 18.2176C87.0583 18.2176 88.1383 16.9936 88.1383 15.1576C88.1383 13.3396 87.0583 12.0976 85.4383 12.0976C83.8363 12.0976 82.7563 13.3396 82.7563 15.1396C82.7563 16.9756 83.8363 18.2176 85.4383 18.2176Z" fill="white"/>
<path d="M74.5871 19.8736C71.7791 19.8736 69.8891 17.9836 69.8891 15.1576C69.8891 12.3496 71.7791 10.4416 74.5871 10.4416C77.3951 10.4416 79.2851 12.3496 79.2851 15.1576C79.2851 17.9836 77.3951 19.8736 74.5871 19.8736ZM74.5871 18.2176C76.2251 18.2176 77.3051 16.9396 77.3051 15.1576C77.3051 13.3756 76.2251 12.0976 74.5871 12.0976C72.9491 12.0976 71.8871 13.3756 71.8871 15.1576C71.8871 16.9396 72.9491 18.2176 74.5871 18.2176Z" fill="white"/>
<path d="M59.863 19.7656V10.5496H61.573L61.771 11.7556C62.329 11.0536 63.229 10.4416 64.723 10.4416C66.775 10.4416 68.431 11.5576 68.431 14.6356V19.7656H66.487V14.7796C66.487 13.0336 65.731 12.1156 64.291 12.1156C62.653 12.1156 61.825 13.1416 61.825 14.9056V19.7656H59.863Z" fill="white"/>
<path d="M50.2427 23.3656V21.6556H51.6107C52.3667 21.6556 52.5467 21.4756 52.8167 20.7196L53.1587 19.8016L49.6127 10.5496H51.7007L54.2387 17.5516L56.7587 10.5496H58.8287L54.6527 21.2236C54.0767 22.7176 53.6807 23.3656 52.3307 23.3656H50.2427Z" fill="white"/>
<path d="M44.401 19.8736C41.269 19.8736 39.379 18.1456 39.307 15.6436H41.395C41.503 17.1376 42.655 18.1276 44.401 18.1276C45.931 18.1276 46.993 17.4796 46.993 16.2736C46.993 14.9416 45.697 14.6356 43.879 14.3116C41.611 13.9156 39.613 13.2316 39.613 10.7476C39.613 8.55164 41.413 7.05764 44.095 7.05764C46.975 7.05764 48.775 8.62364 48.865 10.9456H46.795C46.633 9.66764 45.643 8.80364 44.077 8.80364C42.655 8.80364 41.683 9.39764 41.683 10.5856C41.683 11.8816 42.979 12.1516 44.779 12.4756C47.047 12.8896 49.063 13.5736 49.063 16.0576C49.063 18.3076 47.173 19.8736 44.401 19.8736Z" fill="white"/>
<defs>
<clipPath id="clip0_4414_1527">
<rect width="27.307" height="27.2706" fill="white" transform="translate(0 0.576324)"/>
</clipPath>
</defs>
</svg>
