<svg width="56" height="56" viewBox="0 0 56 56" fill="none" xmlns="http://www.w3.org/2000/svg">
<path d="M28.0817 0.152832L29.5761 2.95962C29.9121 3.47758 30.2761 3.93605 30.7048 4.36302C31.9617 5.60425 33.1333 6.929 34.2115 8.32822C36.7436 11.653 38.4515 15.3452 39.6711 19.3384C40.4026 21.7777 40.7998 24.28 40.8296 26.8103C40.9521 34.375 38.3587 40.8705 33.1301 46.2689C32.2796 47.125 31.3608 47.9103 30.3828 48.6172C29.8648 48.6172 29.6199 48.22 29.4064 47.8543C29.0176 47.1761 28.7589 46.4313 28.6434 45.6582C28.4597 44.743 28.3389 43.8278 28.3984 42.8829V42.4559C28.3564 42.3649 27.8997 0.368066 28.0817 0.152832Z" fill="#599636"/>
<path d="M28.0817 0.0602008C28.0204 -0.0622901 27.9592 0.030453 27.8979 0.0899486C27.9277 0.702403 27.7142 1.24836 27.38 1.76982C27.0125 2.28779 26.526 2.68501 26.0378 3.11198C23.3255 5.4603 21.1907 8.29684 19.481 11.4694C17.2062 15.739 16.0338 20.315 15.7013 25.1324C15.5491 26.87 16.2508 33.0015 16.7985 34.7706C18.2929 39.4673 20.9772 43.4028 24.4542 46.8185C25.3081 47.6409 26.2215 48.4039 27.1665 49.1371C27.4412 49.1371 27.471 48.8921 27.534 48.7101C27.6544 48.3207 27.7462 47.923 27.8087 47.5202L28.4211 42.946L28.0817 0.0602008Z" fill="#6CAC48"/>
<path d="M29.5761 50.4757C29.6373 49.7757 29.9733 49.1948 30.339 48.6156C29.9716 48.4633 29.6986 48.1606 29.4851 47.8229C29.301 47.5031 29.1486 47.1661 29.0301 46.8167C28.6032 45.5358 28.5122 44.1919 28.3897 42.883V42.0903C28.2374 42.2128 28.2059 43.2487 28.2059 43.4027C28.1169 44.7861 27.9333 46.1618 27.6565 47.5202C27.5655 48.0696 27.5042 48.6173 27.1665 49.1055C27.1665 49.1668 27.1665 49.228 27.1963 49.319C27.7457 50.9359 27.8962 52.5825 27.9889 54.2606V54.8731C27.9889 55.6045 27.9592 55.4505 28.5664 55.6955C28.8114 55.7865 29.0844 55.818 29.3294 56C29.5131 56 29.5428 55.8477 29.5428 55.7253L29.4518 54.7191V51.9123C29.4221 51.4223 29.5131 50.9359 29.5743 50.4774L29.5761 50.4757Z" fill="#C2BFBF"/>
</svg>
