<svg width="56" height="56" viewBox="0 0 56 56" fill="none" xmlns="http://www.w3.org/2000/svg">
<path fill-rule="evenodd" clip-rule="evenodd" d="M32.9732 -0.000488281C32.5682 -0.000488281 32.1922 0.0862864 31.8451 0.201979C32.5827 0.693685 32.9876 1.34448 33.1901 2.08204C33.2046 2.18327 33.2335 2.25558 33.248 2.35681C33.2625 2.44358 33.2769 2.53035 33.2769 2.61713C33.3347 3.88978 32.9442 4.04886 32.6695 4.80088C32.2501 5.76984 32.3657 6.8111 32.8719 7.64989C32.9153 7.75112 32.9732 7.86682 33.0455 7.96805C32.4959 4.30918 35.5474 3.75962 36.1114 2.61713C36.1548 1.61925 35.3305 0.954001 34.6797 0.491218C34.0578 0.115208 33.4938 -0.000488281 32.9732 -0.000488281ZM37.5721 0.823844C37.5142 1.15647 37.5576 1.0697 37.5432 1.24324C37.5287 1.35893 37.5287 1.50356 37.5143 1.61925C37.4854 1.73495 37.4564 1.85064 37.413 1.96634C37.3841 2.08204 37.3407 2.19773 37.2973 2.31342C37.2395 2.42913 37.1961 2.53035 37.1382 2.64605C37.0949 2.70392 37.0659 2.76174 37.0226 2.8196C36.9936 2.86298 36.9647 2.90637 36.9358 2.94975C36.8635 3.05099 36.7912 3.15222 36.7188 3.23899C36.6321 3.32576 36.5598 3.42699 36.4585 3.49931V3.51379C36.3718 3.5861 36.285 3.67287 36.1838 3.74518C35.8801 3.97657 35.533 4.15011 35.2148 4.36704C35.1136 4.43935 35.0123 4.4972 34.9256 4.58397C34.8243 4.65628 34.7376 4.72859 34.6508 4.81536C34.5495 4.90214 34.4772 4.98891 34.3905 5.09014C34.3182 5.17692 34.2314 5.27815 34.1735 5.37938C34.1012 5.48061 34.0289 5.58185 33.9711 5.68308C33.9132 5.79877 33.8698 5.90001 33.812 6.01571C33.7686 6.1314 33.7252 6.23264 33.6963 6.34833C33.6529 6.47849 33.624 6.59418 33.5951 6.70988C33.5806 6.76776 33.5806 6.84004 33.5662 6.89789C33.5517 6.95576 33.5517 7.01358 33.5373 7.07143C33.5373 7.18712 33.5228 7.31728 33.5228 7.43298C33.5228 7.51975 33.5228 7.60652 33.5373 7.6933C33.5373 7.80899 33.5517 7.92468 33.5806 8.05484C33.5951 8.17054 33.624 8.28623 33.653 8.40193C33.6963 8.51763 33.7253 8.63332 33.7687 8.74901C33.7976 8.82133 33.841 8.89364 33.8699 8.95148L30.5436 7.66437C29.9796 7.50529 29.4301 7.36067 28.866 7.23051C28.5623 7.1582 28.2586 7.08589 27.9549 7.01358C27.0872 6.84004 26.2051 6.70988 25.3229 6.62311C25.294 6.62311 25.2795 6.60863 25.2506 6.60863C24.3828 6.52186 23.5296 6.47848 22.6619 6.47848C22.0255 6.47848 21.3892 6.50737 20.7673 6.55078C19.8852 6.60865 19.003 6.72433 18.1208 6.86894C17.9039 6.89785 17.687 6.94126 17.47 6.98464C17.0217 7.07141 16.5878 7.17265 16.1684 7.27388C15.9515 7.33175 15.7346 7.38958 15.5177 7.44742C15.3007 7.53419 15.0983 7.63543 14.8958 7.7222C14.7367 7.79451 14.5776 7.86682 14.4186 7.93913C14.3896 7.95361 14.3607 7.95361 14.3462 7.96803C14.2016 8.04034 14.0715 8.09819 13.9413 8.1705C13.8979 8.18498 13.869 8.1994 13.8401 8.21389C13.681 8.2862 13.5219 8.37297 13.3918 8.44528C13.2905 8.48866 13.1893 8.54651 13.1025 8.5899C13.0591 8.6188 13.0013 8.64777 12.9724 8.66221C12.8422 8.73452 12.712 8.80682 12.5963 8.87914C12.4662 8.95145 12.3505 9.02375 12.2493 9.09606C12.148 9.16838 12.0468 9.22622 11.96 9.29853C11.9455 9.31301 11.9311 9.31301 11.9166 9.32743C11.8299 9.3853 11.7286 9.45759 11.6419 9.5299C11.6419 9.5299 11.6274 9.54438 11.613 9.55881C11.5406 9.61668 11.4683 9.6745 11.396 9.73234C11.3671 9.74683 11.3382 9.77573 11.3092 9.79021C11.2369 9.84809 11.1646 9.92037 11.0923 9.97822C11.0778 10.0071 11.0489 10.0216 11.0345 10.0361C10.9477 10.1229 10.8609 10.1952 10.7741 10.2819C10.7597 10.2819 10.7597 10.2964 10.7452 10.3108C10.6585 10.3832 10.5717 10.4699 10.4849 10.5567C10.4704 10.5712 10.4704 10.5856 10.456 10.5856C10.3837 10.6579 10.3114 10.7302 10.2391 10.817C10.2102 10.8459 10.1668 10.8749 10.1379 10.9038C10.0655 10.9905 9.97878 11.0773 9.892 11.1641C9.87752 11.193 9.84862 11.2075 9.83413 11.2364C9.71844 11.3521 9.6172 11.4678 9.50151 11.5835C9.48702 11.598 9.47261 11.6124 9.45812 11.6269C9.22673 11.8727 8.98087 12.1186 8.72056 12.3355C8.46025 12.5669 8.18547 12.7838 7.91069 12.9718C7.62145 13.1743 7.34668 13.3478 7.04297 13.5214C6.75373 13.6805 6.45003 13.8251 6.13187 13.9552C5.82817 14.0854 5.51001 14.2011 5.19184 14.3023C4.58444 14.4325 3.96257 14.6783 3.42748 14.7217C3.31179 14.7217 3.18163 14.7506 3.06593 14.7651C2.93578 14.794 2.82008 14.823 2.70439 14.8519C2.58869 14.8953 2.47299 14.9387 2.3573 14.982C2.2416 15.0254 2.12591 15.0833 2.01022 15.1411C1.90898 15.2134 1.79328 15.2713 1.69205 15.3436C1.59082 15.4159 1.48958 15.5027 1.40281 15.5894C1.30158 15.6618 1.20034 15.763 1.11357 15.8498C1.0268 15.951 0.940024 16.0378 0.867716 16.139C0.795408 16.2547 0.708636 16.3559 0.650785 16.4716C0.578477 16.5729 0.506169 16.6885 0.448319 16.8042C0.390448 16.9344 0.332624 17.0501 0.289238 17.1803C0.245852 17.2959 0.202466 17.4261 0.15908 17.5563C0.130178 17.672 0.101209 17.7877 0.0867717 17.9033C0.0867717 17.9178 0.0722874 17.9323 0.0722874 17.9467C0.0433859 18.0769 0.0433859 18.2504 0.0289011 18.3372C0.0144169 18.4384 0 18.5252 0 18.6265C0 18.6843 4.50212e-08 18.7566 0.0144843 18.8145C0.0289685 18.9157 0.0433853 19.0025 0.0723551 19.0892C0.101256 19.176 0.130226 19.2628 0.173585 19.3496V19.364C0.216971 19.4508 0.274822 19.5376 0.332666 19.6244C0.390536 19.7111 0.448367 19.7979 0.520675 19.8847C0.592983 19.957 0.679755 20.0437 0.766527 20.1161C0.8533 20.2028 0.940072 20.2751 1.0413 20.3474C1.38839 20.6511 1.47516 20.7524 1.92348 20.9838C1.99579 21.0272 2.06811 21.0561 2.15488 21.0995C2.16937 21.0995 2.18378 21.114 2.19827 21.114C2.19827 21.1429 2.19827 21.1573 2.21275 21.1863C2.22724 21.302 2.25614 21.4177 2.28506 21.5334C2.31396 21.6635 2.35737 21.7792 2.40076 21.8804C2.44415 21.9672 2.47307 22.054 2.51646 22.1408C2.53094 22.1697 2.54536 22.1986 2.55984 22.2131C2.61771 22.3288 2.67554 22.43 2.73338 22.5312C2.80569 22.6325 2.878 22.7337 2.95031 22.8349C3.02262 22.9217 3.10939 23.0229 3.19616 23.1097C3.28294 23.1965 3.36971 23.2688 3.47095 23.3556C3.47095 23.3556 3.48543 23.3701 3.49985 23.3701C3.58662 23.4424 3.67339 23.5147 3.76016 23.5725C3.86139 23.6448 3.96263 23.7027 4.07832 23.7605C4.17956 23.8184 4.29526 23.8762 4.41095 23.9196C4.49772 23.963 4.59895 23.9919 4.70019 24.0208C4.71467 24.0353 4.72909 24.0354 4.75806 24.0498C4.81593 24.0643 4.88821 24.0787 4.94606 24.0931C4.90268 24.8741 4.88819 25.6116 5.00393 25.872C5.13408 26.1612 5.77041 25.279 6.40674 24.2667C6.31997 25.2646 6.26212 26.436 6.40674 26.7831C6.56582 27.1446 7.43354 26.0166 8.18556 24.7728C18.4391 22.4011 27.796 29.4874 28.7794 39.4951C28.5914 37.9332 26.6679 37.0655 25.7858 37.2824C25.3519 38.3526 24.6143 39.7265 23.4285 40.5798C23.5297 39.6253 23.4863 38.6419 23.2839 37.6874C22.9657 39.0179 22.3438 40.2616 21.4906 41.3318C20.1167 41.433 18.7428 40.7678 18.0197 39.7699C17.9618 39.7265 17.9474 39.6397 17.904 39.5819C17.8606 39.4807 17.8172 39.3794 17.7883 39.2782C17.7449 39.177 17.716 39.0757 17.7015 38.9745C17.687 38.8733 17.687 38.772 17.687 38.6563C17.687 38.584 17.687 38.5117 17.687 38.4394C17.7015 38.3382 17.7304 38.2369 17.7593 38.1357C17.7882 38.0345 17.8172 37.9332 17.8606 37.832C17.9185 37.7308 17.9618 37.6295 18.0341 37.5283C18.28 36.8341 18.28 36.2701 17.8317 35.9375C17.7449 35.8796 17.6581 35.8362 17.5569 35.7929C17.499 35.7784 17.4267 35.7495 17.3689 35.735C17.3255 35.7205 17.2966 35.7061 17.2532 35.6916C17.1519 35.6627 17.0507 35.6337 16.9495 35.6193C16.8482 35.5904 16.747 35.5759 16.6458 35.5759C16.5445 35.5614 16.4288 35.547 16.3276 35.547C16.2553 35.547 16.183 35.5615 16.1107 35.5615C15.995 35.5615 15.8938 35.576 15.7925 35.6049C15.6913 35.6194 15.5901 35.6338 15.4888 35.6627C15.3876 35.6916 15.2864 35.7206 15.1851 35.764C15.0839 35.8074 14.9971 35.8507 14.8959 35.8941C14.8091 35.9375 14.7223 35.9954 14.6211 36.0387C11.2515 38.237 13.2617 43.3854 15.5611 44.875C14.6934 45.0341 13.8112 45.2221 13.5654 45.4101C13.5509 45.4246 13.5365 45.439 13.5365 45.439C14.1583 45.815 14.8091 46.1332 15.4888 46.4079C16.4144 46.7117 17.3978 46.9864 17.8317 47.1021V47.1166C19.032 47.3625 20.2468 47.4492 21.4761 47.3769C27.8827 46.9286 33.1324 42.0549 34.0869 35.6338C34.1158 35.764 34.1448 35.8797 34.1737 36.0098C34.2171 36.2701 34.2749 36.5449 34.3039 36.8197V36.8342C34.3328 36.9644 34.3472 37.0945 34.3617 37.2102V37.2681C34.3762 37.3982 34.3906 37.5284 34.3906 37.6441C34.4051 37.8032 34.4195 37.9622 34.4195 38.1213V38.3527C34.4195 38.425 34.434 38.5118 34.434 38.5841C34.434 38.6709 34.4195 38.7577 34.4195 38.8444V39.0469C34.4195 39.1481 34.405 39.2349 34.405 39.3361C34.405 39.394 34.405 39.4518 34.3906 39.5241C34.3906 39.6254 34.3761 39.7266 34.3761 39.8423C34.3616 39.8857 34.3616 39.9291 34.3616 39.9725C34.3471 40.0882 34.3327 40.1894 34.3182 40.3051C34.3182 40.3485 34.3182 40.3919 34.3037 40.4352C34.2892 40.5799 34.2603 40.71 34.2458 40.8546V40.8691V40.8836C34.2169 41.0138 34.188 41.1584 34.1591 41.2886V41.3319C34.1302 41.4621 34.1012 41.5923 34.0723 41.7224C34.0723 41.7369 34.0578 41.7658 34.0578 41.7803C34.0289 41.9104 33.9999 42.0406 33.9566 42.1708V42.2141C33.9132 42.3588 33.8698 42.4889 33.8409 42.6191C33.8264 42.6336 33.8264 42.648 33.8264 42.648C33.783 42.7926 33.7396 42.9372 33.6962 43.0818C33.6384 43.2265 33.595 43.3566 33.5372 43.5012C33.4793 43.6459 33.4359 43.7905 33.3781 43.9206C33.3202 44.0653 33.2624 44.1954 33.2045 44.34H33.19C33.1322 44.4702 33.0743 44.6148 33.002 44.745C32.9875 44.7883 32.9731 44.8173 32.9586 44.8462C32.9442 44.8607 32.9442 44.8751 32.9297 44.8896C31.9897 46.7841 30.6014 48.4472 28.8659 49.7488C28.7502 49.8211 28.6345 49.9079 28.5188 49.9947C28.4899 50.0236 28.4465 50.038 28.4176 50.067C28.3164 50.1393 28.2151 50.2116 28.0994 50.2839L28.1428 50.3707H28.1573C28.3598 50.3418 28.5622 50.3128 28.7647 50.2839H28.7792C29.1552 50.226 29.5312 50.1537 29.9072 50.0814C30.0085 50.0669 30.1242 50.038 30.2254 50.0091C30.2977 49.9946 30.3556 49.9802 30.4279 49.9657C30.5291 49.9512 30.6303 49.9223 30.7316 49.9079C30.8183 49.879 30.9051 49.8645 30.9919 49.8355C32.4381 49.4885 33.8409 49.0112 35.1858 48.4472C32.8864 51.5854 29.806 54.1163 26.205 55.7794C27.8681 55.6637 29.5312 55.3889 31.1365 54.9262C36.9647 53.2052 41.8673 49.286 44.803 44.0074C44.2101 47.3481 42.8796 50.5297 40.9128 53.3064C42.3156 52.3808 43.6027 51.3107 44.7741 50.0959C48.0136 46.7118 50.1395 42.4166 50.8626 37.8032C51.3543 40.0882 51.4989 42.4455 51.282 44.7739C61.7235 30.2107 52.1497 15.1124 48.1438 11.1353C48.1293 11.1064 48.1149 11.092 48.1149 11.063C48.1004 11.0775 48.1004 11.0775 48.1004 11.0919C48.1004 11.0775 48.1004 11.0775 48.0859 11.063C48.0859 11.2366 48.0714 11.4101 48.057 11.5837C48.0136 11.9163 47.9702 12.2345 47.9124 12.5526C47.84 12.8708 47.7533 13.1889 47.6665 13.5071C47.5653 13.8108 47.4496 14.129 47.3194 14.4327C47.1893 14.7219 47.0446 15.0256 46.8856 15.3149C46.7265 15.5896 46.5529 15.8789 46.3649 16.1392C46.1769 16.414 45.9745 16.6743 45.772 16.9201C45.555 17.1804 45.3237 17.4118 45.0923 17.6432C44.9477 17.7734 44.8175 17.8891 44.6729 18.0048C44.5572 18.106 44.4559 18.1928 44.3402 18.294C44.0799 18.4965 43.8196 18.6845 43.5304 18.858C43.2556 19.0316 42.9664 19.2051 42.6771 19.3497C42.3734 19.4944 42.0697 19.6245 41.766 19.7547C41.4623 19.8704 41.1442 19.9716 40.826 20.0584C40.5078 20.1451 40.1752 20.2175 39.857 20.2753C39.5244 20.3332 39.1918 20.3621 38.8736 20.391C38.6422 20.4055 38.4109 20.4199 38.1795 20.4199C37.8468 20.4199 37.5142 20.391 37.196 20.362C36.8634 20.3331 36.5308 20.2897 36.2126 20.2174C35.88 20.1595 35.5618 20.0728 35.2437 19.9716H35.2292C35.5474 19.9427 35.8655 19.9137 36.1837 19.8559C36.5163 19.798 36.8345 19.7257 37.1526 19.6389C37.4708 19.5522 37.789 19.4509 38.0927 19.3352C38.4108 19.2195 38.7145 19.0749 39.0038 18.9303C39.3075 18.7857 39.5823 18.6266 39.8715 18.453C40.1463 18.265 40.421 18.077 40.6814 17.8746C40.9417 17.6721 41.1875 17.4552 41.4189 17.2238C41.6648 17.0068 41.8817 16.761 42.0986 16.5151C42.3156 16.2548 42.518 15.9945 42.706 15.7342C42.7349 15.6908 42.7639 15.633 42.7928 15.5896C42.9374 15.3582 43.082 15.1268 43.2122 14.8954C43.3713 14.6062 43.5159 14.3169 43.6461 14.0132C43.7762 13.7095 43.8919 13.4058 43.9931 13.0877C44.0944 12.784 44.1667 12.4658 44.239 12.1476C44.2969 11.815 44.3547 11.4968 44.3836 11.1787C44.4125 10.8461 44.4415 10.5134 44.4415 10.1953C44.4415 9.96388 44.427 9.73249 44.4126 9.5011C44.3837 9.16848 44.3403 8.85031 44.2969 8.53215C44.239 8.19952 44.1667 7.88136 44.08 7.56319C43.9787 7.2595 43.8775 6.94133 43.7618 6.63763C43.6461 6.33393 43.5015 6.03023 43.3569 5.74099C43.1978 5.45175 43.0387 5.16251 42.8652 4.88773C42.6772 4.61296 42.4891 4.35264 42.2867 4.09232C42.0698 3.84647 41.8528 3.60062 41.6214 3.35477C41.5057 3.23907 41.3756 3.10891 41.2454 2.99322C40.5946 2.48705 39.9149 2.0098 39.2352 1.57595C39.134 1.51808 39.0472 1.47471 38.946 1.43132C38.4687 1.12763 38.0204 0.968459 37.5721 0.823844Z" fill="#E0234E"/>
</svg>
