<svg width="57" height="56" viewBox="0 0 57 56" fill="none" xmlns="http://www.w3.org/2000/svg">
<path d="M33.9881 36.2425L20.254 33.3725C20.1965 33.4837 20.1325 33.5915 20.0624 33.6952L32.5654 51.934L33.3196 51.1806L35.4467 37.9529C35.0872 37.801 34.7681 37.5673 34.5149 37.2703C34.2616 36.9733 34.0813 36.6213 33.9881 36.2423V36.2425ZM28.9779 18.289C28.4634 19.0782 27.5753 19.6006 26.5638 19.6006C26.408 19.6006 26.2567 19.5848 26.1079 19.5612L19.8445 29.3613L36.5783 22.1601C36.5731 22.0928 36.5582 22.0298 36.5582 21.9606C36.5582 21.8198 36.5774 21.6833 36.6002 21.5485L28.9779 18.2892V18.289ZM29.4329 16.5031L37.5408 19.9698C37.7992 19.7679 38.0947 19.6186 38.4105 19.5306L39.7432 11.2444L34.6662 6.16745L28.9516 15.1094C29.2317 15.5237 29.3977 16.0045 29.4329 16.5033V16.5031ZM46.422 17.9232L41.3339 12.8342L40.2279 19.7047C40.5083 19.8457 40.7601 20.0373 40.9708 20.2699L46.422 17.9232ZM34.2313 34.4328C34.4305 34.0713 34.7165 33.7652 35.0636 33.542C35.4108 33.3188 35.808 33.1856 36.2196 33.1544L37.6808 24.0659C37.5662 23.9898 37.4638 23.8988 37.3632 23.8051L20.5331 31.0483C20.576 31.2242 20.6057 31.4036 20.6197 31.59L34.2313 34.4328ZM47.808 19.3101L41.921 21.8432L56.4461 28.0532L56.4986 28.0007L47.808 19.3101ZM37.2879 37.9803L35.5187 48.9798L45.792 38.7065L38.3922 37.1613C38.1084 37.5326 37.7257 37.8165 37.2879 37.9803ZM17.3193 35.1523C16.9474 35.1523 16.5913 35.0884 16.2579 34.9753L12.8454 40.3156L11.5268 38.9979L14.759 33.9404C14.6791 33.8412 14.6046 33.7377 14.5359 33.6304L8.68044 36.1515L7.29248 34.7636L13.7018 32.0047L2.11448 29.5862L0.529648 28.0007L1.03102 27.4994L14.3933 30.2888C14.5469 29.9973 14.7437 29.7307 14.9769 29.4978L8.49144 20.0381L9.8013 18.7282L16.577 28.6124C16.8204 28.5559 17.0692 28.5268 17.319 28.5257C17.6052 28.5257 17.8825 28.566 18.1477 28.6342L24.4881 18.7133C23.9719 18.1779 23.6836 17.463 23.684 16.7192C23.684 16.4917 23.7128 16.2712 23.7627 16.0595L15.8528 12.6776L17.2403 11.2899L24.7346 14.495C25.1146 14.1818 25.5689 13.9716 26.0536 13.8847C26.5383 13.7978 27.0373 13.8371 27.5024 13.9989L33.3483 4.8497L28.4993 0.000488281L0.499023 28.0007L28.4993 56.001L31.2546 53.2456L18.658 34.8686C18.2364 35.0554 17.7804 35.1521 17.3193 35.1523ZM39.4632 24.4577L37.9765 33.6969C38.2363 33.9057 38.4515 34.1646 38.6092 34.4582C38.7668 34.7518 38.8639 35.0742 38.8944 35.406L47.332 37.1674L55.0582 29.4412L41.1125 23.4788C40.7135 24.01 40.1206 24.362 39.4632 24.4579V24.4577Z" fill="#32E6E2"/>
</svg>
