<svg width="56" height="56" viewBox="0 0 56 56" fill="none" xmlns="http://www.w3.org/2000/svg">
<path d="M25.9156 0.597436C27.3041 -0.197349 29.1127 -0.200939 30.5 0.597436C37.4795 4.54125 44.4613 8.47887 51.4396 12.4251C52.7522 13.1644 53.6301 14.6251 53.6168 16.1375V39.865C53.6265 41.44 52.6618 42.9357 51.2771 43.6582C44.3205 47.5803 37.3675 51.5072 30.412 55.4292C28.9948 56.2396 27.1499 56.1772 25.7769 55.3004C23.6914 54.0914 21.6022 52.8883 19.5164 51.6805C19.0902 51.4264 18.6097 51.2242 18.3088 50.8109C18.5748 50.4523 19.0505 50.4076 19.437 50.2511C20.3076 49.9742 21.1072 49.5299 21.9069 49.0987C22.1092 48.9603 22.3561 49.0133 22.5499 49.1372C24.3334 50.1597 26.101 51.212 27.8905 52.2248C28.2722 52.4452 28.6587 52.1526 28.985 51.9707C35.8116 48.1124 42.6465 44.2687 49.4719 40.4093C49.7248 40.2876 49.8646 40.0192 49.8441 39.7422C49.8489 31.915 49.8453 24.0864 49.8465 16.2592C49.8754 15.9449 49.6935 15.6559 49.4093 15.5272C42.4768 11.6231 35.5479 7.71301 28.6166 3.80789C28.4965 3.72533 28.3543 3.68103 28.2086 3.68082C28.0628 3.68061 27.9204 3.72449 27.8001 3.80669C20.8688 7.71301 13.9411 11.6267 7.00985 15.5306C6.72663 15.6595 6.53656 15.9437 6.57027 16.2592C6.57147 24.0864 6.57027 31.915 6.57027 39.7434C6.55825 39.8785 6.58794 40.0141 6.65533 40.1319C6.72273 40.2497 6.8246 40.344 6.94722 40.4021C8.79687 41.451 10.6489 42.4925 12.4997 43.5378C13.5424 44.099 14.8227 44.4325 15.9715 44.0025C16.9852 43.6389 17.6959 42.6044 17.6765 41.528C17.6861 33.7465 17.6717 25.9638 17.6837 18.1834C17.6584 17.838 17.9861 17.5526 18.3219 17.5851C19.2106 17.5791 20.1006 17.5731 20.9893 17.5875C21.3603 17.5791 21.6155 17.9511 21.5697 18.2991C21.5661 26.1299 21.5792 33.9609 21.5637 41.7916C21.5661 43.8786 20.7087 46.1495 18.7783 47.1707C16.4001 48.4026 13.4607 48.1413 11.1112 46.96C9.07728 45.9449 7.13629 44.7468 5.13846 43.6592C3.75013 42.9406 2.7902 41.439 2.79998 39.8652V16.1375C2.78542 14.5938 3.69827 13.1066 5.0517 12.378C12.0071 8.45275 18.9613 4.52449 25.9156 0.597436Z" fill="#8CC84B"/>
<path d="M31.9835 17.0334C35.0171 16.8381 38.2646 16.9177 40.9944 18.4122C43.108 19.5574 44.2797 21.9609 44.317 24.3089C44.2579 24.6256 43.9269 24.8004 43.6245 24.7786C42.7444 24.7774 41.864 24.7906 40.9839 24.7726C40.6105 24.787 40.3935 24.4427 40.3466 24.1127C40.0938 22.9892 39.4811 21.8765 38.4236 21.3346C36.8003 20.5219 34.9182 20.5628 33.1481 20.5797C31.8559 20.6483 30.4664 20.7602 29.3716 21.5201C28.5312 22.0957 28.2759 23.2577 28.5758 24.1934C28.8587 24.8654 29.6343 25.0822 30.2689 25.282C33.9247 26.2381 37.7987 26.143 41.3848 27.4013C42.8694 27.9143 44.3218 28.9115 44.83 30.466C45.4947 32.5494 45.2033 35.0396 43.721 36.7122C42.519 38.0885 40.7683 38.8376 39.0221 39.2445C36.6992 39.7625 34.2885 39.7756 31.9295 39.5457C29.7113 39.2928 27.4029 38.71 25.6905 37.1986C24.2262 35.9271 23.511 33.9461 23.582 32.034C23.5989 31.7111 23.9204 31.4859 24.2298 31.5124C25.1161 31.5053 26.0024 31.5029 26.8887 31.5136C27.2428 31.4883 27.5052 31.7943 27.5234 32.1279C27.6869 33.1984 28.0892 34.3218 29.0226 34.9565C30.824 36.1186 33.0843 36.039 35.1469 36.0715C36.8558 35.9958 38.774 35.9728 40.1685 34.8434C40.9043 34.1992 41.1223 33.1214 40.9234 32.1941C40.708 31.4113 39.8891 31.0465 39.1859 30.808C35.5769 29.6664 31.6597 30.0806 28.0856 28.7896C26.6347 28.2769 25.2316 27.3074 24.6741 25.8167C23.8963 23.707 24.2527 21.0975 25.8903 19.4814C27.4871 17.8739 29.7921 17.2548 31.9835 17.0332V17.0334Z" fill="#8CC84B"/>
</svg>
