<svg width="23" height="22" viewBox="0 0 23 22" fill="none" xmlns="http://www.w3.org/2000/svg">
<path d="M19.9475 9.81745C20.2688 9.031 20.3761 8.17351 20.2587 7.33212C20.1412 6.49074 19.8031 5.69543 19.2788 5.02703C18.7544 4.35862 18.0624 3.84094 17.2732 3.52658C16.484 3.21222 15.6256 3.11238 14.7852 3.23722C14.2645 2.56641 13.5755 2.04534 12.7882 1.72693C12.0009 1.40852 11.1434 1.30411 10.3027 1.42429C9.46204 1.54448 8.66813 1.88498 8.00161 2.41123C7.33508 2.93747 6.81968 3.63072 6.50773 4.42058C5.66601 4.5358 4.86978 4.87179 4.19997 5.39441C3.53016 5.91703 3.01063 6.60765 2.69419 7.3961C2.37775 8.18454 2.27567 9.04271 2.39832 9.88338C2.52097 10.7241 2.86398 11.5173 3.3925 12.1825C3.13459 12.8145 3.01409 13.4942 3.03901 14.1763C3.06392 14.8585 3.23368 15.5276 3.53702 16.1391C3.84035 16.7507 4.27031 17.2907 4.79835 17.7233C5.32639 18.1559 5.94043 18.4713 6.59969 18.6484C7.00832 18.7602 7.42986 18.818 7.85352 18.8203C8.08852 18.82 8.32319 18.8025 8.55563 18.7678C9.0765 19.4384 9.76551 19.9592 10.5527 20.2775C11.34 20.5957 12.1974 20.6999 13.0379 20.5797C13.8784 20.4594 14.6722 20.1189 15.3386 19.5927C16.005 19.0665 16.5203 18.3734 16.8323 17.5836C17.674 17.4684 18.4702 17.1324 19.14 16.6098C19.8098 16.0872 20.3294 15.3965 20.6458 14.6081C20.9623 13.8197 21.0643 12.9615 20.9417 12.1208C20.819 11.2801 20.476 10.4869 19.9475 9.82175V9.81745ZM16.3837 4.67753C17.25 4.90912 17.9915 5.47007 18.45 6.24071C18.9086 7.01136 19.0478 7.93067 18.838 8.80253C18.7564 8.74839 18.6739 8.69597 18.588 8.64698L14.7637 6.43495C14.6592 6.37461 14.5407 6.34285 14.42 6.34285C14.2993 6.34285 14.1808 6.37461 14.0762 6.43495L10.295 8.61862V7.0305L13.7755 5.02128C14.1659 4.79448 14.5975 4.64733 15.0452 4.58833C15.4928 4.52933 15.9478 4.55964 16.3837 4.67753ZM13.045 11.794L11.67 12.5881L10.295 11.794V10.2059L11.67 9.41183L13.045 10.2059V11.794ZM7.545 6.18745C7.54532 5.51542 7.74261 4.85823 8.11249 4.29714C8.48236 3.73605 9.00859 3.29569 9.62609 3.03051C10.2436 2.76533 10.9253 2.68697 11.5868 2.80512C12.2484 2.92327 12.8608 3.23274 13.3484 3.69527C13.2624 3.73909 13.1765 3.7812 13.0905 3.83448L9.26375 6.03878C9.15934 6.09906 9.07262 6.18574 9.01228 6.29012C8.95195 6.3945 8.92012 6.51291 8.92 6.63347V11L7.545 10.2059V6.18745ZM4.18141 7.4705C4.61943 6.70658 5.33555 6.14132 6.18031 5.89269C6.1743 5.99066 6.17 6.08862 6.17 6.18745V10.6029C6.16997 10.7236 6.20173 10.8422 6.26207 10.9468C6.32241 11.0513 6.40921 11.1381 6.51375 11.1985L10.295 13.3813L8.92 14.1796L5.43953 12.1661C4.65003 11.7103 4.07394 10.9595 3.838 10.0789C3.60206 9.19828 3.72559 8.26002 4.18141 7.4705ZM6.95633 17.3224C6.09001 17.0908 5.34848 16.5298 4.88995 15.7592C4.43142 14.9885 4.29218 14.0692 4.50195 13.1974C4.58359 13.2515 4.66609 13.3039 4.75203 13.3529L8.57625 15.565C8.68076 15.6253 8.79932 15.6571 8.92 15.6571C9.04068 15.6571 9.15924 15.6253 9.26375 15.565L13.045 13.3813V14.9694L9.56453 16.9786C9.17407 17.2054 8.74252 17.3526 8.29484 17.4116C7.84716 17.4706 7.39222 17.4403 6.95633 17.3224ZM15.795 15.8125C15.7954 16.4847 15.5986 17.1423 15.2291 17.7038C14.8596 18.2654 14.3336 18.7063 13.7161 18.972C13.0986 19.2376 12.4167 19.3164 11.7549 19.1986C11.0931 19.0807 10.4803 18.7714 9.9925 18.3089C10.0784 18.2651 10.1644 18.2187 10.2503 18.1689L14.0762 15.9611C14.1807 15.9008 14.2674 15.8142 14.3277 15.7098C14.388 15.6054 14.4199 15.487 14.42 15.3664V11L15.795 11.794V15.8125ZM19.1586 14.5294C18.7206 15.2933 18.0045 15.8586 17.1597 16.1072C17.1657 16.0092 17.17 15.9113 17.17 15.8125V11.397C17.17 11.2763 17.1383 11.1577 17.0779 11.0531C17.0176 10.9486 16.9308 10.8618 16.8263 10.8014L13.045 8.61862L14.42 7.82456L17.9005 9.83378C18.69 10.2896 19.2661 11.0404 19.502 11.921C19.7379 12.8016 19.6144 13.7399 19.1586 14.5294Z" fill="#F1F1EF"/>
</svg>
