<svg width="23" height="22" viewBox="0 0 23 22" fill="none" xmlns="http://www.w3.org/2000/svg">
<path d="M17.9236 4.63118C16.2596 2.9834 14.0117 2.0601 11.6699 2.0625H11.578C9.22357 2.08673 6.97383 3.03904 5.31756 4.71253C3.66129 6.38602 2.7323 8.64548 2.73242 11C2.73242 14.6953 5.01664 17.7942 8.69305 19.0927C9.1077 19.2389 9.55137 19.2836 9.98684 19.2229C10.4223 19.1622 10.8369 18.9981 11.1958 18.7441C11.5547 18.4901 11.8475 18.1538 12.0496 17.7634C12.2517 17.3729 12.3573 16.9397 12.3574 16.5C12.3574 16.1353 12.5023 15.7856 12.7602 15.5277C13.018 15.2699 13.3677 15.125 13.7324 15.125H17.7036C18.3274 15.128 18.9335 14.9176 19.4212 14.5287C19.9089 14.1397 20.249 13.5957 20.3848 12.9869C20.5385 12.3103 20.6132 11.6182 20.6074 10.9244C20.5987 9.75001 20.3569 8.58906 19.8962 7.50879C19.4355 6.42852 18.765 5.45043 17.9236 4.63118ZM19.0408 12.6844C18.9725 12.9877 18.8028 13.2586 18.5596 13.4524C18.3165 13.6461 18.0145 13.7511 17.7036 13.75H13.7324C13.0031 13.75 12.3036 14.0397 11.7879 14.5555C11.2722 15.0712 10.9824 15.7707 10.9824 16.5C10.9821 16.7196 10.9292 16.936 10.8281 17.131C10.727 17.3259 10.5807 17.4938 10.4013 17.6207C10.222 17.7475 10.0149 17.8295 9.79741 17.8598C9.5799 17.8902 9.35827 17.868 9.15109 17.7951C6.04016 16.6977 4.10742 14.0938 4.10742 11C4.10732 9.00778 4.89333 7.09599 6.29471 5.67997C7.69608 4.26395 9.5996 3.45811 11.5917 3.4375H11.6691C13.6613 3.44524 15.5706 4.23567 16.9853 5.63833C18.4 7.041 19.2068 8.9435 19.2316 10.9356C19.2367 11.5238 19.1738 12.1106 19.0442 12.6844H19.0408ZM12.7012 6.53125C12.7012 6.73522 12.6407 6.9346 12.5274 7.10419C12.4141 7.27377 12.253 7.40595 12.0646 7.484C11.8761 7.56206 11.6688 7.58248 11.4687 7.54269C11.2687 7.5029 11.0849 7.40468 10.9407 7.26046C10.7965 7.11624 10.6983 6.93248 10.6585 6.73244C10.6187 6.5324 10.6391 6.32505 10.7172 6.13661C10.7952 5.94818 10.9274 5.78712 11.097 5.6738C11.2666 5.56049 11.466 5.5 11.6699 5.5C11.9434 5.5 12.2057 5.60865 12.3991 5.80205C12.5925 5.99545 12.7012 6.25775 12.7012 6.53125ZM8.91992 8.59375C8.91992 8.79772 8.85944 8.9971 8.74613 9.16669C8.63281 9.33627 8.47175 9.46845 8.28331 9.5465C8.09488 9.62456 7.88753 9.64498 7.68748 9.60519C7.48744 9.5654 7.30369 9.46718 7.15947 9.32296C7.01524 9.17874 6.91703 8.99498 6.87724 8.79494C6.83745 8.5949 6.85787 8.38755 6.93592 8.19911C7.01397 8.01068 7.14615 7.84962 7.31574 7.7363C7.48533 7.62299 7.68471 7.5625 7.88867 7.5625C8.16218 7.5625 8.42448 7.67115 8.61788 7.86455C8.81127 8.05795 8.91992 8.32025 8.91992 8.59375ZM8.91992 13.4063C8.91992 13.6102 8.85944 13.8096 8.74613 13.9792C8.63281 14.1488 8.47175 14.281 8.28331 14.359C8.09488 14.4371 7.88753 14.4575 7.68748 14.4177C7.48744 14.3779 7.30369 14.2797 7.15947 14.1355C7.01524 13.9912 6.91703 13.8075 6.87724 13.6074C6.83745 13.4074 6.85787 13.2 6.93592 13.0116C7.01397 12.8232 7.14615 12.6621 7.31574 12.5488C7.48533 12.4355 7.68471 12.375 7.88867 12.375C8.16218 12.375 8.42448 12.4837 8.61788 12.6771C8.81127 12.8704 8.91992 13.1327 8.91992 13.4063ZM16.4824 8.59375C16.4824 8.79772 16.4219 8.9971 16.3086 9.16669C16.1953 9.33627 16.0343 9.46845 15.8458 9.5465C15.6574 9.62456 15.45 9.64498 15.25 9.60519C15.0499 9.5654 14.8662 9.46718 14.722 9.32296C14.5777 9.17874 14.4795 8.99498 14.4397 8.79494C14.3999 8.5949 14.4204 8.38755 14.4984 8.19911C14.5765 8.01068 14.7087 7.84962 14.8782 7.7363C15.0478 7.62299 15.2472 7.5625 15.4512 7.5625C15.7247 7.5625 15.987 7.67115 16.1804 7.86455C16.3738 8.05795 16.4824 8.32025 16.4824 8.59375Z" fill="#F1F1EF"/>
</svg>
