<svg width="56" height="56" viewBox="0 0 56 56" fill="none" xmlns="http://www.w3.org/2000/svg">
<path d="M55.1437 33.5449C54.8182 32.5562 53.9653 31.8675 52.8624 31.7022C52.3423 31.6244 51.7468 31.6576 51.042 31.8032C49.8135 32.0574 48.9021 32.1542 48.237 32.1729C50.7476 27.9224 52.789 23.0753 53.9643 18.5126C55.8647 11.1348 54.8491 7.77373 53.6624 6.25346C50.5219 2.22947 45.94 0.0677463 40.4123 0.00160145C37.4635 -0.0345549 34.8748 0.549264 33.5244 0.969103C32.2671 0.746635 30.9152 0.622427 29.4966 0.599458C26.8376 0.556921 24.4882 1.13819 22.4807 2.33284C21.3693 1.95596 19.5855 1.42467 17.5256 1.08565C12.6809 0.288087 8.77616 0.909552 5.92005 2.93282C2.46158 5.38252 0.858335 9.63876 1.15485 15.5833C1.24902 17.4707 2.30187 23.2131 3.95963 28.6591C4.91237 31.7894 5.92832 34.3889 6.97927 36.386C8.46968 39.2179 10.0644 40.8855 11.8548 41.4844C12.8582 41.8196 14.6814 42.0544 16.599 40.4529C16.842 40.7481 17.1663 41.0414 17.5967 41.3139C18.1433 41.6595 18.8116 41.9419 19.479 42.1093C21.8844 42.7123 24.1376 42.5615 26.0598 41.7163C26.0717 42.0591 26.0808 42.3866 26.0884 42.6695C26.1012 43.1283 26.1139 43.5781 26.1306 43.9988C26.2445 46.8432 26.4376 49.0549 27.0094 50.6024C27.0408 50.6875 27.083 50.8172 27.1275 50.9548C27.4128 51.8307 27.8898 53.2969 29.1034 54.4452C30.3601 55.6348 31.8802 55.9995 33.2724 55.9995C33.9706 55.9995 34.6368 55.9076 35.2212 55.7821C37.304 55.3344 39.6695 54.6526 41.3807 52.2093C42.9986 49.8995 43.785 46.4206 43.9274 40.9391C43.9458 40.7841 43.9628 40.636 43.9791 40.495L44.013 40.2053L44.3942 40.239L44.4924 40.2455C46.6138 40.3425 49.2077 39.8914 50.8008 39.1494C52.0596 38.5636 56.0935 36.4281 55.1437 33.5449Z" fill="black"/>
<path d="M51.5167 34.1056C45.2089 35.4104 44.7752 33.2689 44.7752 33.2689C51.4351 23.3593 54.2193 10.7805 51.8168 7.70188C45.2621 -0.695981 33.916 3.27569 33.7266 3.37863L33.6657 3.38969C32.4194 3.13022 31.0249 2.97581 29.4572 2.95007C26.6032 2.90328 24.4381 3.70042 22.7952 4.94974C22.7952 4.94974 2.55471 -3.41175 3.49621 15.4657C3.69643 19.4816 9.23644 45.8526 15.8441 37.8874C18.2593 34.9747 20.593 32.512 20.593 32.512C21.7519 33.284 23.1395 33.6779 24.594 33.5365L24.7071 33.4403C24.6719 33.8019 24.688 34.1556 24.7523 34.5744C23.05 36.4815 23.5503 36.8163 20.1474 37.5188C16.704 38.2304 18.7268 39.4972 20.0475 39.8285C21.6486 40.2299 25.3527 40.7986 27.8555 37.2853L27.7558 37.6862C28.4226 38.2219 28.8909 41.1706 28.8125 43.8438C28.734 46.5168 28.6816 48.3521 29.207 49.7856C29.7327 51.2191 30.2564 54.4445 34.73 53.4833C38.4678 52.68 40.4049 50.5985 40.6745 47.1262C40.8656 44.6578 41.2985 45.0227 41.3256 42.8157L41.6728 41.771C42.073 38.4248 41.7364 37.3452 44.0392 37.8474L44.5991 37.8967C46.2938 37.9739 48.5123 37.6232 49.8144 37.0164C52.6179 35.7118 54.2808 33.5333 51.5163 34.1056H51.5167Z" fill="#336791"/>
<path d="M23.9796 17.2618C23.4112 17.1825 22.8965 17.2558 22.636 17.4536C22.4897 17.5649 22.4443 17.6937 22.432 17.7824C22.3993 18.0175 22.5635 18.2773 22.6644 18.4113C22.9499 18.7908 23.3669 19.0515 23.7796 19.1089C23.8394 19.1174 23.899 19.1213 23.9582 19.1213C24.6465 19.1213 25.2724 18.5838 25.3275 18.1872C25.3965 17.6903 24.6772 17.3592 23.9796 17.262V17.2618ZM42.8106 17.2775C42.7563 16.8881 42.0653 16.7771 41.4094 16.8685C40.7545 16.96 40.1195 17.2565 40.1725 17.6467C40.2149 17.9502 40.7615 18.4683 41.4084 18.4683C41.4631 18.4683 41.5183 18.4647 41.5738 18.4569C42.0057 18.3969 42.3225 18.1219 42.4731 17.9634C42.7022 17.7218 42.835 17.4526 42.8106 17.2775Z" fill="white"/>
<path d="M53.6153 33.9573C53.3748 33.228 52.6006 32.9934 51.3144 33.2597C47.4956 34.05 46.128 33.5026 45.679 33.171C48.6473 28.6366 51.0892 23.1552 52.4065 18.0412C53.0305 15.6187 53.3752 13.369 53.4034 11.5352C53.4346 9.52256 53.0927 8.04354 52.3877 7.14006C49.5451 3.49783 45.3731 1.5441 40.3231 1.49051C36.8512 1.45137 33.9179 2.34231 33.3493 2.59285C32.1518 2.29424 30.8463 2.11091 29.425 2.08751C26.8188 2.04519 24.5659 2.67091 22.7007 3.94638C21.8905 3.64394 19.7966 2.92315 17.236 2.50948C12.809 1.79486 9.29118 2.33636 6.78079 4.11972C3.78532 6.24785 2.40244 10.0519 2.67032 15.4261C2.76046 17.2341 3.78787 22.7962 5.40915 28.1229C7.54328 35.1339 9.86321 39.1028 12.304 39.9193C12.5897 40.0148 12.9191 40.0816 13.2824 40.0816C14.1728 40.0816 15.2645 39.6792 16.4003 38.3099C17.7856 36.6434 19.2187 35.0174 20.6976 33.4339C21.6572 33.9503 22.7113 34.2387 23.7894 34.2676C23.7915 34.2959 23.7943 34.3242 23.7968 34.3522C23.6112 34.5742 23.4295 34.7993 23.2517 35.0275C22.5047 35.9784 22.3492 36.1764 19.9447 36.6729C19.2607 36.8145 17.444 37.1899 17.4173 38.4669C17.3885 39.8621 19.5648 40.448 19.8127 40.5101C20.6768 40.7271 21.5093 40.834 22.3032 40.834C24.2339 40.834 25.9331 40.1977 27.2909 38.9664C27.2491 43.9403 27.4559 48.8414 28.0515 50.3347C28.5393 51.5572 29.7309 54.5448 33.4948 54.5446C34.0471 54.5446 34.655 54.4801 35.3237 54.3363C39.252 53.492 40.9579 51.7509 41.6177 47.9126C41.9709 45.8613 42.5768 40.9629 42.8619 38.3354C43.4634 38.5236 44.2378 38.6098 45.0749 38.6096C46.8209 38.6096 48.8357 38.2376 50.0991 37.6495C51.5185 36.9885 54.0798 35.3665 53.6153 33.9573ZM44.2605 16.2024C44.2475 16.978 44.1411 17.6822 44.0282 18.4173C43.9067 19.2078 43.7811 20.0252 43.7495 21.0173C43.7184 21.9829 43.8386 22.9868 43.9548 23.9577C44.1899 25.9187 44.431 27.9375 43.4976 29.9295C43.3425 29.654 43.2044 29.3692 43.084 29.0768C42.968 28.7948 42.716 28.3418 42.3671 27.7148C41.0099 25.274 37.8316 19.5583 39.4586 17.226C39.9432 16.5318 41.1732 15.818 44.2605 16.2024ZM40.5182 3.06119C45.0431 3.16136 48.6225 4.8588 51.1567 8.10607C53.1003 10.5968 50.96 21.9302 44.764 31.7075C44.7017 31.6281 44.6391 31.5489 44.5761 31.4699L44.4976 31.3717C46.0987 28.7201 45.7857 26.0967 45.507 23.7707C45.3924 22.8162 45.2843 21.9146 45.3119 21.0677C45.3403 20.1702 45.4586 19.4003 45.5732 18.6559C45.7138 17.7386 45.8569 16.7894 45.8175 15.6704C45.847 15.553 45.8589 15.4144 45.8434 15.2497C45.7426 14.1767 44.5209 10.9654 42.0309 8.05886C40.6688 6.46904 38.6825 4.68993 35.9704 3.48996C37.1369 3.2475 38.7321 3.02141 40.5182 3.06119ZM15.1983 37.3077C13.947 38.8165 13.0829 38.5273 12.7987 38.4324C10.947 37.8131 8.79848 33.8886 6.90423 27.6654C5.26513 22.2807 4.30729 16.8659 4.23136 15.3476C3.99212 10.5456 5.15293 7.19897 7.68178 5.40051C11.7973 2.47396 18.5637 4.22564 21.2826 5.11402C21.2436 5.15273 21.2028 5.18889 21.1642 5.22823C16.7025 9.74651 16.8084 17.4661 16.8194 17.9381C16.819 18.1201 16.8342 18.3779 16.855 18.7325C16.9318 20.0309 17.0748 22.4474 16.693 25.184C16.3384 27.7271 17.1202 30.2162 18.8375 32.0131C19.0138 32.1972 19.199 32.3724 19.3926 32.538C18.6282 33.359 16.9668 35.1745 15.1983 37.3077ZM19.9661 30.9287C18.5819 29.4803 17.9533 27.4657 18.2411 25.401C18.6441 22.5102 18.4954 19.9924 18.4154 18.6397C18.4042 18.4504 18.3942 18.2845 18.3885 18.1537C19.0403 17.5742 22.0608 15.9514 24.2148 16.4463C25.1977 16.672 25.7967 17.3432 26.0457 18.4976C27.3344 24.4747 26.2162 26.9659 25.3178 28.9679C25.1326 29.3803 24.9576 29.7702 24.8083 30.1734L24.6925 30.4852C24.3994 31.2734 24.1266 32.0063 23.9576 32.7022C22.486 32.698 21.0546 32.0676 19.9661 30.9284V30.9287ZM20.192 38.9894C19.7623 38.8818 19.3758 38.6948 19.1491 38.5398C19.3385 38.4505 19.6755 38.3288 20.2601 38.208C23.0888 37.6242 23.5257 37.212 24.4798 35.9974C24.6984 35.7188 24.9464 35.4031 25.2898 35.0186L25.2902 35.0182C25.8016 34.4439 26.0355 34.5413 26.4597 34.7179C26.8035 34.8604 27.1384 35.2925 27.2742 35.7681C27.3384 35.9927 27.4105 36.4189 27.1745 36.7507C25.1816 39.5488 22.2775 39.5128 20.192 38.9894ZM34.9962 52.8037C31.5356 53.5473 30.3103 51.7767 29.5029 49.7526C28.9818 48.4458 28.7255 42.5532 28.9073 36.0456C28.9096 35.9591 28.8973 35.8755 28.8736 35.7968C28.8523 35.6414 28.82 35.4877 28.7769 35.337C28.5067 34.3901 27.8481 33.5981 27.058 33.2697C26.7441 33.1393 26.1681 32.9 25.4758 33.0776C25.6234 32.4676 25.8794 31.7788 26.157 31.0329L26.2735 30.7192C26.4046 30.3655 26.5691 29.999 26.7431 29.6111C27.6833 27.5166 28.9709 24.6476 27.5734 18.1665C27.05 15.7389 25.3019 14.5534 22.6519 14.8288C21.0633 14.9937 19.6098 15.6364 18.8848 16.005C18.7289 16.0841 18.5864 16.1607 18.4532 16.2351C18.6555 13.7892 19.4199 9.2182 22.2795 6.32611C24.08 4.50553 26.4777 3.6063 29.3992 3.65479C35.1555 3.74922 38.8469 6.7115 40.9301 9.18013C42.7253 11.3072 43.6974 13.45 44.0853 14.6057C41.1679 14.3082 39.1837 14.8856 38.1779 16.3276C35.9897 19.4643 39.375 25.5522 41.002 28.4781C41.3004 29.0143 41.5579 29.4777 41.6389 29.6747C42.1688 30.9623 42.8547 31.8219 43.3555 32.4494C43.509 32.6416 43.6579 32.8281 43.7712 32.9911C42.8876 33.2465 41.3004 33.8367 41.4451 36.7868C41.3284 38.2671 40.4989 45.1977 40.0775 47.6463C39.5211 50.8813 38.334 52.0861 34.9962 52.8039V52.8037ZM49.441 36.2279C48.5374 36.6484 47.0254 36.9638 45.5891 37.0317C44.0026 37.1061 43.1949 36.8534 43.0049 36.6979C42.9158 34.8595 43.5981 34.6674 44.3203 34.4641C44.4338 34.4322 44.5445 34.401 44.6514 34.3635C44.7178 34.4178 44.7905 34.4716 44.8703 34.5243C46.1454 35.3682 48.4197 35.4593 51.6307 34.7946L51.6659 34.7876C51.2328 35.1936 50.4917 35.7385 49.441 36.2279Z" fill="white"/>
</svg>
