<svg width="56" height="56" viewBox="0 0 56 56" fill="none" xmlns="http://www.w3.org/2000/svg">
<g clip-path="url(#clip0_4530_2792)">
<path d="M0.260094 23.9625C0.12669 24.8975 0.0398845 25.8385 0 26.7822H42.5359C42.3874 26.492 42.1878 26.2304 41.9865 25.9743C34.7148 16.5795 30.8031 17.3941 25.2074 17.1554C23.3418 17.0787 22.0766 17.0479 14.6507 17.0479C10.6761 17.0479 6.35524 17.058 2.14758 17.0692C1.60289 18.5394 1.07756 19.9644 0.821789 21.1237H22.6186V23.9625H0.260094ZM42.8712 29.6238H0.0218203C0.0666641 30.3813 0.13732 31.1286 0.239367 31.8659H39.7998C41.5633 31.8659 42.5505 30.8653 42.8712 29.6238ZM2.46187 39.6103C2.46187 39.6103 9.02021 55.7138 27.9705 55.9998C39.2969 55.9998 49.029 49.2729 53.4498 39.6103H2.46187Z" fill="white"/>
<path d="M27.97 0C17.4973 0 8.38406 5.75094 3.5715 14.2522C7.33242 14.2443 14.6569 14.2399 14.6569 14.2399H14.6586V14.2371C23.3161 14.2371 23.6379 14.2757 25.3291 14.3463L26.3763 14.3849C30.024 14.5066 34.5074 14.8981 38.0351 17.5672C39.95 19.0148 42.7148 22.21 44.3629 24.4863C45.8866 26.5917 46.3249 29.012 45.2889 31.3309C44.3354 33.462 42.2837 34.7332 39.7992 34.7332H0.912598C0.912598 34.7332 1.14409 35.7145 1.49119 36.7977H54.5726C55.5153 33.9643 55.9972 30.998 55.9999 28.0119C56.0004 12.5429 43.4508 0 27.97 0Z" fill="white"/>
</g>
<defs>
<clipPath id="clip0_4530_2792">
<rect width="56" height="56" fill="white"/>
</clipPath>
</defs>
</svg>
