<svg width="57" height="56" viewBox="0 0 57 56" fill="none" xmlns="http://www.w3.org/2000/svg">
<path d="M28.172 32.9372C30.8986 32.9372 33.109 30.7268 33.109 28.0001C33.109 25.2734 30.8986 23.063 28.172 23.063C25.4453 23.063 23.2349 25.2734 23.2349 28.0001C23.2349 30.7268 25.4453 32.9372 28.172 32.9372Z" fill="#61DAFB"/>
<path d="M28.1719 38.1148C42.8028 38.1148 54.6636 33.5862 54.6636 27.9998C54.6636 22.4134 42.8028 17.8848 28.1719 17.8848C13.5409 17.8848 1.68018 22.4134 1.68018 27.9998C1.68018 33.5862 13.5409 38.1148 28.1719 38.1148Z" stroke="#61DAFB" stroke-width="2.79998"/>
<path d="M19.4122 33.0575C26.7277 45.7283 36.5799 53.7357 41.4179 50.9425C46.2558 48.1493 44.2474 35.6133 36.9319 22.9425C29.6164 10.2717 19.7641 2.26432 14.9262 5.05751C10.0882 7.85069 12.0967 20.3867 19.4122 33.0575Z" stroke="#61DAFB" stroke-width="2.79998"/>
<path d="M19.4117 22.9422C12.0962 35.613 10.0877 48.149 14.9257 50.9422C19.7636 53.7354 29.6159 45.728 36.9314 33.0572C44.2469 20.3864 46.2553 7.85042 41.4174 5.05724C36.5794 2.26405 26.7272 10.2714 19.4117 22.9422Z" stroke="#61DAFB" stroke-width="2.79998"/>
</svg>
