<svg width="56" height="56" viewBox="0 0 56 56" fill="none" xmlns="http://www.w3.org/2000/svg">
<path d="M53.8055 40.7483C50.8169 42.306 35.3357 48.6713 32.0398 50.3896C28.7439 52.1081 26.913 52.0914 24.3093 50.8468C21.7057 49.6021 5.23092 42.9473 2.26317 41.5288C0.780056 40.82 0 40.2215 0 39.6563V33.9959C0 33.9959 21.4482 29.3268 24.9108 28.0845C28.3732 26.8422 29.5745 26.7974 32.5211 27.8767C35.468 28.9564 53.0873 32.1353 55.9995 33.2019L55.9982 38.7822C55.9986 39.3417 55.3266 39.9555 53.8055 40.7483Z" fill="#912626"/>
<path d="M53.8043 35.1213C50.816 36.6784 35.3352 43.0439 32.0393 44.762C28.7437 46.4807 26.9127 46.4638 24.3092 45.2192C21.7055 43.9754 5.23131 37.3195 2.26377 35.9018C-0.703762 34.4832 -0.765886 33.507 2.14915 32.3655C5.06419 31.2237 21.448 24.7958 24.911 23.5535C28.3733 22.3117 29.5745 22.2664 32.521 23.3461C35.4678 24.4254 50.8563 30.5506 53.768 31.617C56.6809 32.6847 56.7926 33.5639 53.8043 35.1213Z" fill="#C6302B"/>
<path d="M53.8055 31.5894C50.8169 33.1474 35.3357 39.5125 32.0398 41.2314C28.7439 42.9492 26.913 42.9326 24.3093 41.6879C21.7055 40.4439 5.23092 33.7885 2.26317 32.3699C0.780056 31.6612 0 31.0636 0 30.4981V24.8371C0 24.8371 21.4482 20.1682 24.9108 18.9259C28.3732 17.6836 29.5745 17.6386 32.5211 18.7181C35.4683 19.7976 53.0875 22.9758 55.9995 24.0426L55.9982 29.6235C55.9986 30.1829 55.3266 30.7967 53.8055 31.5894Z" fill="#912626"/>
<path d="M53.8043 25.9626C50.816 27.52 35.3352 33.8852 32.0393 35.6039C28.7437 37.3219 26.9127 37.3051 24.3092 36.0604C21.7055 34.8166 5.23131 28.161 2.26377 26.743C-0.703762 25.3249 -0.765886 24.3484 2.14915 23.2065C5.06419 22.0653 21.4482 15.637 24.911 14.3949C28.3733 13.1529 29.5745 13.1078 32.521 14.1873C35.4678 15.2666 50.8563 21.3914 53.768 22.4582C56.6809 23.5257 56.7926 24.4051 53.8043 25.9626Z" fill="#C6302B"/>
<path d="M53.8055 22.091C50.8169 23.6485 35.3357 30.014 32.0398 31.733C28.7439 33.451 26.913 33.4342 24.3093 32.1895C21.7055 30.9455 5.23092 24.2898 2.26317 22.8719C0.780056 22.1625 0 21.5647 0 20.9998V15.3386C0 15.3386 21.4482 10.6699 24.9108 9.42784C28.3732 8.18535 29.5745 8.14072 32.5211 9.22003C35.4683 10.2995 53.0875 13.4777 55.9995 14.5446L55.9982 20.1253C55.9986 20.6842 55.3266 21.298 53.8055 22.091Z" fill="#912626"/>
<path d="M53.8042 16.4643C50.8159 18.0217 35.3351 24.3873 32.0392 26.1054C28.7436 27.8234 26.9126 27.8066 24.3091 26.5625C21.7056 25.3179 5.2312 18.6627 2.26388 17.2445C-0.703871 15.8266 -0.765777 14.8499 2.14904 13.7082C5.06408 12.5668 21.4481 6.13934 24.9109 4.89685C28.3732 3.65458 29.5744 3.60995 32.5209 4.68947C35.4677 5.769 50.8561 11.8937 53.7679 12.9606C56.6808 14.0272 56.7925 14.9068 53.8042 16.4643Z" fill="#C6302B"/>
<path d="M34.8427 10.9575L30.028 11.4574L28.9502 14.0508L27.2094 11.1568L21.6499 10.6572L25.7983 9.16116L24.5536 6.86475L28.4375 8.38373L32.0989 7.18499L31.1093 9.5595L34.8427 10.9575ZM28.6628 23.5395L19.6773 19.8126L32.5528 17.8363L28.6628 23.5395ZM16.2051 12.3991C20.0058 12.3991 23.0869 13.5934 23.0869 15.0665C23.0869 16.54 20.0058 17.7341 16.2051 17.7341C12.4043 17.7341 9.32324 16.5397 9.32324 15.0665C9.32324 13.5934 12.4043 12.3991 16.2051 12.3991Z" fill="white"/>
<path d="M40.5327 11.6667L48.1531 14.678L40.5393 17.6865L40.5327 11.6665" fill="#621B1C"/>
<path d="M32.1025 15.0013L40.5331 11.6665L40.5397 17.6863L39.713 18.0096L32.1025 15.0013Z" fill="#9A2928"/>
</svg>
