<svg width="57" height="57" viewBox="0 0 57 57" fill="none" xmlns="http://www.w3.org/2000/svg">
<path d="M28.3456 55.4493C13.6425 55.4493 1.68018 43.4882 1.68018 28.7845C1.68018 14.0808 13.6425 2.11963 28.3456 2.11963C43.0487 2.11963 55.011 14.0819 55.011 28.785C55.011 43.4882 43.0487 55.4493 28.3456 55.4493Z" fill="#85EA2D"/>
<path d="M27.9997 3.66868C41.9898 3.66868 53.3303 15.0092 53.3303 28.9992C53.3303 42.9887 41.9898 54.3298 27.9997 54.3298C14.0102 54.3298 2.66917 42.9887 2.66917 28.9992C2.66917 15.0097 14.0102 3.66868 27.9997 3.66868ZM27.9997 0.999512C12.5606 0.999512 0 13.5601 0 28.9992C0 44.4383 12.5606 56.999 27.9997 56.999C43.4388 56.999 56 44.4383 56 28.9992C56 13.5601 43.4388 0.999512 27.9997 0.999512Z" fill="#173647"/>
<path d="M17.8751 19.6971C17.7889 20.6553 17.907 21.6459 17.8432 22.6148C17.7676 23.5841 17.649 24.5423 17.4553 25.5005C17.1861 26.8679 16.3354 27.9016 15.1623 28.763C17.4452 30.249 17.7033 32.5526 17.8538 34.8894C17.9294 36.1492 17.8969 37.4197 18.0262 38.6684C18.123 39.6372 18.4997 39.8852 19.5015 39.9171C19.9107 39.9277 20.3299 39.9171 20.8045 39.9171V42.9103C17.8437 43.4163 15.3996 42.5767 14.7962 40.0682C14.602 39.1531 14.4727 38.2162 14.4302 37.2686C14.3653 36.2673 14.4727 35.266 14.3977 34.2647C14.1822 31.5189 13.8268 30.5932 11.2002 30.4639V27.0509C11.3938 27.0078 11.5769 26.9753 11.7705 26.954C13.2134 26.8785 13.8268 26.4369 14.1391 25.0158C14.2903 24.2194 14.3764 23.4118 14.4084 22.5935C14.5164 21.0325 14.4733 19.4391 14.7419 17.8887C15.1186 15.66 16.4971 14.5832 18.7907 14.4539C19.4366 14.4214 20.0937 14.4539 20.8364 14.4539V17.512C20.5241 17.5339 20.2549 17.5764 19.975 17.5764C18.1124 17.5115 18.015 18.1467 17.8751 19.6971ZM21.4605 26.7817H21.4174C20.3405 26.7279 19.4148 27.5675 19.3605 28.6443C19.3068 29.7318 20.1463 30.6581 21.2232 30.7113H21.3525C22.4187 30.7762 23.3332 29.9574 23.3981 28.8917V28.7842C23.42 27.6968 22.548 26.8035 21.4605 26.7817ZM28.2115 26.7817C27.1671 26.7492 26.2945 27.5675 26.2626 28.6012C26.2626 28.6661 26.2626 28.7199 26.2738 28.7842C26.2738 29.9579 27.0703 30.7118 28.2764 30.7118C29.4607 30.7118 30.204 29.9366 30.204 28.7199C30.1928 27.5462 29.4064 26.771 28.2115 26.7817ZM35.1242 26.7817C34.0261 26.7598 33.1105 27.6324 33.0786 28.7305C33.0786 29.8286 33.9612 30.7113 35.0593 30.7113H35.0811C36.0718 30.8836 37.0731 29.9255 37.138 28.7736C37.1912 27.7074 36.2224 26.7817 35.1242 26.7817ZM44.6099 26.9429C43.3607 26.8891 42.736 26.4694 42.4243 25.2845C42.2301 24.5311 42.112 23.7448 42.0689 22.9696C41.9827 21.5267 41.9933 20.0732 41.8965 18.6303C41.6704 15.2067 39.1943 14.0117 35.5977 14.6033V17.5753C36.1681 17.5753 36.6097 17.5753 37.0513 17.5859C37.8158 17.5966 38.3973 17.8876 38.4723 18.7383C38.5479 19.5135 38.5479 20.2993 38.6234 21.0857C38.7745 22.6472 38.8602 24.2295 39.1294 25.7692C39.3667 27.0397 40.2387 27.9872 41.3256 28.7624C39.4204 30.0435 38.8602 31.8737 38.7634 33.9306C38.7096 35.341 38.6772 36.7621 38.6022 38.1837C38.5372 39.4755 38.0856 39.8952 36.7826 39.9277C36.4166 39.9383 36.0612 39.9708 35.652 39.9926V43.0396C36.4166 43.0396 37.1162 43.0827 37.8158 43.0396C39.9908 42.9103 41.3044 41.8553 41.7353 39.7447C41.9183 38.5816 42.0258 37.4085 42.0583 36.2349C42.1333 35.158 42.1232 34.0705 42.2306 33.0049C42.3918 31.3359 43.1564 30.6469 44.8254 30.5394C44.9871 30.5176 45.1377 30.4857 45.2888 30.432V27.0184C45.0084 26.9859 44.8142 26.954 44.6099 26.9429Z" fill="#173647"/>
</svg>
