<svg width="57" height="56" viewBox="0 0 57 56" fill="none" xmlns="http://www.w3.org/2000/svg">
<path d="M28.5 11.2002C21.0331 11.2002 16.3666 14.9326 14.4997 22.3967C17.3 18.6643 20.5667 17.2652 24.2998 18.1979C26.43 18.7301 27.9524 20.2756 29.6379 21.9856C32.383 24.7713 35.56 27.9953 42.5004 27.9953C49.9665 27.9953 54.6338 24.2629 56.5 16.7981C53.7003 20.5305 50.4336 21.9303 46.6998 20.9976C44.5703 20.4654 43.048 18.9199 41.3624 17.2098C38.6174 14.4242 35.4396 11.2002 28.5 11.2002ZM14.4997 27.9953C7.03345 27.9953 2.3662 31.7277 0.5 39.1924C3.29965 35.46 6.56638 34.0602 10.3002 34.9937C12.4297 35.5266 13.952 37.0714 15.6376 38.7807C18.3826 41.5663 21.5604 44.791 28.5 44.791C35.9669 44.791 40.6334 41.0586 42.5004 33.5939C39.7 37.3262 36.4333 38.7261 32.7002 37.7926C30.57 37.2611 29.0476 35.7149 27.3621 34.0056C24.617 31.22 21.44 27.9953 14.4997 27.9953Z" fill="#06B6D4"/>
</svg>
