<svg width="56" height="56" viewBox="0 0 56 56" fill="none" xmlns="http://www.w3.org/2000/svg">
<path d="M0 0H56.0005V56.0005H0V0Z" fill="#017ACB"/>
<path d="M26.8892 20.7377H29.5755V25.3753H22.3129V46.008L22.1204 46.0605C21.8579 46.1305 18.4016 46.1305 17.6579 46.0517L17.0629 45.9992V25.3753H9.80029V20.7377L12.1016 20.7115C13.3616 20.694 16.5991 20.694 19.2941 20.7115C21.9892 20.729 25.4017 20.7377 26.8892 20.7377ZM47.3907 43.8204C46.3232 44.9492 45.1769 45.5792 43.2694 46.0955C42.4381 46.323 42.2981 46.3317 40.4256 46.323C38.5531 46.3142 38.4043 46.3142 37.4943 46.078C35.1406 45.4742 33.2418 44.2929 31.9468 42.6217C31.5793 42.1492 30.9755 41.1692 30.9755 41.0467C30.9755 41.0117 31.063 40.9329 31.1768 40.8804C31.2905 40.8279 31.5268 40.6792 31.7193 40.5654C31.9118 40.4517 32.2618 40.2417 32.498 40.1192C32.7343 39.9967 33.4168 39.5942 34.0118 39.2354C34.6068 38.8766 35.1493 38.5879 35.2106 38.5879C35.2718 38.5879 35.3856 38.7104 35.4731 38.8591C35.9981 39.7429 37.2231 40.8717 38.0893 41.2567C38.6231 41.4842 39.8044 41.7379 40.3731 41.7379C40.8981 41.7379 41.8606 41.5104 42.3769 41.2742C42.9281 41.0204 43.2081 40.7667 43.5406 40.2592C43.7682 39.9004 43.7944 39.8042 43.7856 39.1216C43.7856 38.4916 43.7506 38.3166 43.5756 38.0279C43.0856 37.2229 42.4206 36.8029 39.7256 35.6129C36.9431 34.3791 35.6918 33.6441 34.6768 32.6553C33.9243 31.9203 33.7755 31.7191 33.303 30.8003C32.6905 29.6191 32.6118 29.2341 32.603 27.4753C32.5943 26.2415 32.6205 25.839 32.7518 25.419C32.9355 24.789 33.5305 23.5728 33.8018 23.2665C34.3618 22.6103 34.5631 22.409 34.9568 22.0852C36.1468 21.1052 38.0018 20.4577 39.7781 20.3965C39.9794 20.3965 40.6444 20.4315 41.2656 20.4752C43.0506 20.624 44.2669 21.0615 45.4394 21.9977C46.3232 22.6978 47.6619 24.3428 47.5307 24.5615C47.4432 24.6928 43.9519 27.0203 43.7244 27.0903C43.5844 27.134 43.4881 27.0815 43.2956 26.854C42.1056 25.4278 41.6244 25.1215 40.4694 25.0515C39.6469 24.999 39.2093 25.0953 38.6581 25.4628C38.0806 25.8478 37.8006 26.434 37.8006 27.2478C37.8093 28.4378 38.2643 28.9978 39.9444 29.8291C41.0294 30.3628 41.9569 30.8003 42.0269 30.8003C42.1319 30.8003 44.3807 31.9203 44.9669 32.2703C47.6969 33.8716 48.8082 35.5166 49.097 38.3516C49.307 40.4867 48.7032 42.4379 47.3907 43.8204Z" fill="white"/>
</svg>
