<svg width="29" height="28" viewBox="0 0 29 28" fill="none" xmlns="http://www.w3.org/2000/svg">
<path d="M27.1052 16.45C27.0132 16.519 26.9086 16.5691 26.7973 16.5977C26.686 16.6262 26.5702 16.6325 26.4564 16.6162C26.3427 16.6 26.2332 16.5615 26.1344 16.5029C26.0355 16.4444 25.9491 16.367 25.8802 16.275C25.3528 15.5661 24.6663 14.991 23.876 14.5958C23.0857 14.2007 22.2137 13.9966 21.3302 14C21.1581 14 20.9899 13.9493 20.8465 13.8541C20.7031 13.759 20.591 13.6237 20.5241 13.4652C20.4786 13.3575 20.4552 13.2419 20.4552 13.125C20.4552 13.0082 20.4786 12.8925 20.5241 12.7849C20.591 12.6263 20.7031 12.4911 20.8465 12.3959C20.9899 12.3008 21.1581 12.25 21.3302 12.25C21.8211 12.25 22.3022 12.1123 22.7188 11.8525C23.1354 11.5927 23.4708 11.2213 23.6869 10.7805C23.9031 10.3397 23.9912 9.84708 23.9414 9.35866C23.8916 8.87024 23.7058 8.40558 23.4051 8.01746C23.1044 7.62934 22.701 7.33332 22.2405 7.16302C21.78 6.99272 21.281 6.95496 20.8002 7.05405C20.3193 7.15313 19.8759 7.38507 19.5203 7.72354C19.1646 8.062 18.911 8.49342 18.7883 8.96878C18.7596 9.0801 18.7092 9.18467 18.6401 9.27651C18.5709 9.36836 18.4844 9.4457 18.3853 9.5041C18.2863 9.5625 18.1768 9.60082 18.0629 9.61688C17.9491 9.63294 17.8332 9.62642 17.7219 9.59769C17.6106 9.56896 17.506 9.51859 17.4142 9.44945C17.3223 9.38031 17.245 9.29376 17.1866 9.19474C17.1282 9.09571 17.0898 8.98615 17.0738 8.87232C17.0577 8.75848 17.0643 8.6426 17.093 8.53128C17.2633 7.87209 17.5852 7.26176 18.0329 6.74885C18.4807 6.23594 19.042 5.83461 19.6721 5.57679C20.3022 5.31897 20.9839 5.21178 21.6627 5.26374C22.3416 5.3157 22.9989 5.52539 23.5825 5.87611C24.1661 6.22683 24.6597 6.70891 25.0242 7.28399C25.3886 7.85907 25.6139 8.51127 25.6819 9.18871C25.75 9.86615 25.659 10.5501 25.4161 11.1862C25.1733 11.8223 24.7854 12.3929 24.2833 12.8527C25.4731 13.3678 26.5074 14.1853 27.2834 15.2239C27.3524 15.3161 27.4025 15.421 27.4308 15.5325C27.4592 15.644 27.4652 15.7601 27.4487 15.874C27.4321 15.9879 27.3933 16.0974 27.3343 16.1962C27.2754 16.2951 27.1975 16.3813 27.1052 16.45ZM21.212 23.1875C21.2754 23.2871 21.3179 23.3985 21.337 23.5149C21.3562 23.6314 21.3516 23.7505 21.3235 23.8651C21.2954 23.9797 21.2444 24.0875 21.1736 24.1819C21.1028 24.2763 21.0137 24.3554 20.9115 24.4145C20.8093 24.4736 20.6963 24.5113 20.5791 24.5256C20.462 24.5398 20.3432 24.5302 20.2298 24.4973C20.1165 24.4644 20.011 24.409 19.9196 24.3342C19.8283 24.2595 19.753 24.1671 19.6983 24.0625C19.1471 23.1292 18.3621 22.3557 17.4207 21.8184C16.4793 21.281 15.4141 20.9984 14.3302 20.9984C13.2462 20.9984 12.181 21.281 11.2396 21.8184C10.2983 22.3557 9.51324 23.1292 8.96204 24.0625C8.90734 24.1671 8.83205 24.2595 8.74071 24.3342C8.64936 24.409 8.54385 24.4644 8.43051 24.4973C8.31717 24.5302 8.19836 24.5398 8.08121 24.5256C7.96406 24.5113 7.851 24.4736 7.74883 24.4145C7.64666 24.3554 7.55749 24.2763 7.48669 24.1819C7.41589 24.0875 7.36492 23.9797 7.33684 23.8651C7.30877 23.7505 7.30417 23.6314 7.32332 23.5149C7.34247 23.3985 7.38498 23.2871 7.44829 23.1875C8.2966 21.73 9.59007 20.583 11.1386 19.915C10.2672 19.2479 9.62685 18.3245 9.30745 17.2745C8.98804 16.2246 9.00568 15.101 9.35789 14.0616C9.71009 13.0222 10.3792 12.1194 11.271 11.4799C12.1629 10.8404 13.2327 10.4965 14.3302 10.4965C15.4276 10.4965 16.4974 10.8404 17.3893 11.4799C18.2812 12.1194 18.9502 13.0222 19.3024 14.0616C19.6547 15.101 19.6723 16.2246 19.3529 17.2745C19.0335 18.3245 18.3931 19.2479 17.5217 19.915C19.0703 20.583 20.3637 21.73 21.212 23.1875ZM14.3302 19.25C15.0224 19.25 15.6991 19.0448 16.2747 18.6602C16.8502 18.2756 17.2988 17.729 17.5637 17.0894C17.8287 16.4499 17.898 15.7462 17.7629 15.0672C17.6279 14.3883 17.2945 13.7646 16.805 13.2752C16.3156 12.7857 15.6919 12.4523 15.013 12.3173C14.334 12.1822 13.6303 12.2515 12.9908 12.5165C12.3512 12.7814 11.8046 13.23 11.42 13.8055C11.0354 14.3811 10.8302 15.0578 10.8302 15.75C10.8302 16.6783 11.1989 17.5685 11.8553 18.2249C12.5117 18.8813 13.4019 19.25 14.3302 19.25ZM8.20517 13.125C8.20517 12.893 8.11298 12.6704 7.94888 12.5063C7.78479 12.3422 7.56223 12.25 7.33017 12.25C6.83921 12.25 6.35811 12.1123 5.94151 11.8525C5.5249 11.5927 5.1895 11.2213 4.97339 10.7805C4.75728 10.3397 4.66913 9.84708 4.71895 9.35866C4.76876 8.87024 4.95456 8.40558 5.25522 8.01746C5.55588 7.62934 5.95937 7.33332 6.41984 7.16302C6.88031 6.99272 7.37931 6.95496 7.86016 7.05405C8.34101 7.15313 8.78444 7.38507 9.14008 7.72354C9.49571 8.062 9.7493 8.49342 9.87204 8.96878C9.93006 9.1936 10.075 9.38615 10.275 9.5041C10.475 9.62204 10.7136 9.65571 10.9384 9.59769C11.1633 9.53967 11.3558 9.39473 11.4738 9.19474C11.5917 8.99475 11.6254 8.75609 11.5674 8.53128C11.397 7.87209 11.0751 7.26176 10.6274 6.74885C10.1797 6.23594 9.61838 5.83461 8.98824 5.57679C8.3581 5.31897 7.67648 5.21178 6.99762 5.26374C6.31876 5.3157 5.6614 5.52539 5.07784 5.87611C4.49427 6.22683 4.00062 6.70891 3.63616 7.28399C3.27169 7.85907 3.04648 8.51127 2.97843 9.18871C2.91038 9.86615 3.00138 10.5501 3.24418 11.1862C3.48699 11.8223 3.87489 12.3929 4.37704 12.8527C3.18844 13.3683 2.15532 14.1858 1.38017 15.2239C1.24078 15.4096 1.18086 15.643 1.21357 15.8728C1.24629 16.1027 1.36897 16.3101 1.55462 16.4495C1.74027 16.5889 1.97369 16.6488 2.20352 16.6161C2.43336 16.5834 2.64078 16.4607 2.78017 16.275C3.30756 15.5661 3.99402 14.991 4.78431 14.5958C5.57459 14.2007 6.44661 13.9966 7.33017 14C7.56223 14 7.78479 13.9078 7.94888 13.7438C8.11298 13.5797 8.20517 13.3571 8.20517 13.125Z" fill="#F1F1EF"/>
</svg>
