<svg width="23" height="22" viewBox="0 0 23 22" fill="none" xmlns="http://www.w3.org/2000/svg">
<path d="M10.7461 13.5713C11.6675 12.9578 12.3671 12.0642 12.7413 11.0224C13.1156 9.98064 13.1446 8.8461 12.8242 7.78656C12.5037 6.72701 11.8508 5.79871 10.962 5.13893C10.0732 4.47915 8.99562 4.12292 7.88868 4.12292C6.78174 4.12292 5.70419 4.47915 4.81536 5.13893C3.92654 5.79871 3.27363 6.72701 2.9532 7.78656C2.63277 8.8461 2.66181 9.98064 3.03605 11.0224C3.41028 12.0642 4.10984 12.9578 5.03126 13.5713C3.3645 14.1856 1.94104 15.3224 0.973293 16.812C0.922432 16.8876 0.887103 16.9725 0.869362 17.0619C0.85162 17.1512 0.851818 17.2432 0.869946 17.3325C0.888074 17.4218 0.923768 17.5066 0.974956 17.582C1.02614 17.6574 1.0918 17.7218 1.16812 17.7716C1.24443 17.8214 1.32988 17.8555 1.41949 17.8719C1.5091 17.8884 1.60109 17.8869 1.69011 17.8675C1.77913 17.8481 1.86341 17.8112 1.93804 17.7589C2.01268 17.7067 2.07618 17.6401 2.12486 17.5631C2.7491 16.603 3.60329 15.814 4.60986 15.2678C5.61643 14.7217 6.74348 14.4356 7.88868 14.4356C9.03388 14.4356 10.1609 14.7217 11.1675 15.2678C12.1741 15.814 13.0283 16.603 13.6525 17.5631C13.7533 17.7129 13.9091 17.8171 14.0861 17.853C14.2632 17.889 14.4472 17.8538 14.5985 17.7551C14.7498 17.6564 14.8562 17.5022 14.8946 17.3257C14.9331 17.1492 14.9006 16.9647 14.8041 16.812C13.8363 15.3224 12.4129 14.1856 10.7461 13.5713ZM4.10743 9.28127C4.10743 8.53341 4.3292 7.80234 4.74469 7.18052C5.16018 6.55869 5.75073 6.07404 6.44166 5.78785C7.13259 5.50165 7.89288 5.42677 8.62637 5.57267C9.35986 5.71857 10.0336 6.0787 10.5624 6.60752C11.0912 7.13634 11.4514 7.81009 11.5973 8.54358C11.7432 9.27707 11.6683 10.0374 11.3821 10.7283C11.0959 11.4192 10.6113 12.0098 9.98943 12.4253C9.36761 12.8408 8.63654 13.0625 7.88868 13.0625C6.88618 13.0614 5.92507 12.6626 5.21619 11.9538C4.50732 11.2449 4.10857 10.2838 4.10743 9.28127ZM22.1663 17.7633C22.0136 17.8629 21.8276 17.8977 21.6492 17.8602C21.4708 17.8226 21.3146 17.7158 21.215 17.5631C20.5915 16.6024 19.7374 15.8131 18.7307 15.2671C17.7239 14.7212 16.5965 14.436 15.4512 14.4375C15.2688 14.4375 15.094 14.3651 14.965 14.2362C14.8361 14.1072 14.7637 13.9324 14.7637 13.75C14.7637 13.5677 14.8361 13.3928 14.965 13.2639C15.094 13.1349 15.2688 13.0625 15.4512 13.0625C16.008 13.062 16.5579 12.9385 17.0615 12.7008C17.5651 12.4632 18.0099 12.1172 18.3643 11.6877C18.7187 11.2581 18.9738 10.7556 19.1115 10.2161C19.2492 9.67651 19.266 9.1132 19.1607 8.56639C19.0554 8.01959 18.8307 7.50278 18.5025 7.0529C18.1743 6.60303 17.7509 6.23118 17.2623 5.96394C16.7738 5.69669 16.2323 5.54065 15.6764 5.50695C15.1206 5.47325 14.5642 5.56273 14.047 5.769C13.9626 5.80546 13.8718 5.82464 13.78 5.82542C13.6881 5.82619 13.597 5.80855 13.5121 5.77352C13.4271 5.7385 13.3501 5.6868 13.2855 5.62149C13.2208 5.55618 13.17 5.47858 13.1358 5.39327C13.1017 5.30797 13.085 5.21669 13.0868 5.12483C13.0885 5.03297 13.1087 4.94239 13.146 4.85845C13.1834 4.77451 13.2372 4.69891 13.3042 4.63611C13.3713 4.57331 13.4503 4.52459 13.5365 4.49283C14.7203 4.02073 16.0369 4.00374 17.2324 4.44514C18.428 4.88654 19.4177 5.75504 20.0107 6.88311C20.6037 8.01118 20.7579 9.31888 20.4435 10.5539C20.1292 11.789 19.3687 12.8639 18.3086 13.5713C19.9754 14.1856 21.3988 15.3224 22.3666 16.812C22.4662 16.9647 22.501 17.1507 22.4635 17.3291C22.4259 17.5075 22.319 17.6637 22.1663 17.7633Z" fill="#F1F1EF"/>
</svg>
